/* XPM */
static char *result[] = {
/* columns rows colors chars-per-pixel */
"64 64 237 2 ",
"   c #F1F1F1",
".  c #FDFDFD",
"X  c #F8F8F8",
"o  c gray91",
"O  c gray92",
"+  c #FBFBFB",
"@  c gray99",
"#  c #ECECEC",
"$  c gray97",
"%  c #FEFEFE",
"&  c #E7E7E7",
"*  c #EAEAEA",
"=  c #EFEFEF",
"-  c #F3F3F3",
";  c gray96",
":  c gray93",
">  c gray98",
",  c #E9E9E9",
"<  c #EEEEEE",
"1  c #F9F9F9",
"2  c #F6F6F6",
"3  c gray95",
"4  c gray94",
"5  c #F4F4F4",
"6  c #F5F4F5",
"7  c gray90",
"8  c white",
"9  c #E6E6E6",
"0  c #E4E4E4",
"q  c #DFDFDF",
"w  c #E2E2E2",
"e  c #C8C8C8",
"r  c #A5A5A5",
"t  c #797979",
"y  c gray33",
"u  c #3E3E3E",
"i  c #343434",
"p  c #353535",
"a  c gray20",
"s  c #484848",
"d  c #7B7B7B",
"f  c #8D8D8D",
"g  c gray70",
"h  c #CDCDCD",
"j  c #D7D7D7",
"k  c #E1E1E1",
"l  c #ACACAC",
"z  c gray32",
"x  c gray14",
"c  c #0E0E0E",
"v  c black",
"b  c #070707",
"n  c #414141",
"m  c #2C2C2C",
"M  c #131313",
"N  c #373737",
"B  c #6A6A6A",
"V  c #B2B2B2",
"C  c gray59",
"Z  c gray23",
"A  c gray17",
"S  c gray43",
"D  c gray74",
"F  c #222222",
"G  c #252525",
"H  c #282828",
"J  c #2A2A2A",
"K  c #5A5A5A",
"L  c #777777",
"P  c #818181",
"I  c #7C7C7C",
"U  c #747474",
"Y  c gray45",
"T  c #656565",
"R  c gray38",
"E  c #202020",
"W  c gray10",
"Q  c gray21",
"!  c gray37",
"~  c gray73",
"^  c gray87",
"/  c #676767",
"(  c #191919",
")  c gray5",
"_  c #464646",
"`  c gray52",
"'  c gray12",
"]  c #0B0B0B",
"[  c gray6",
"{  c gray28",
"}  c gray51",
"|  c #C1C1C1",
" . c gray85",
".. c #DADADA",
"X. c #6D6D6D",
"o. c gray8",
"O. c gray25",
"+. c gray88",
"@. c #686868",
"#. c gray2",
"$. c #0C0C0C",
"%. c #5B5B5B",
"&. c gray77",
"*. c gray",
"=. c gray4",
"-. c #020202",
";. c #3A3A3A",
":. c #6F6F6F",
">. c gray1",
",. c #010101",
"<. c gray42",
"1. c #626262",
"2. c #1B1B1B",
"3. c #8B8B8B",
"4. c gray24",
"5. c gray86",
"6. c #101010",
"7. c #111111",
"8. c #040404",
"9. c #D2D2D2",
"0. c #9A9A9A",
"q. c #4C4C4C",
"w. c #090909",
"e. c #181818",
"r. c #6C6C6C",
"t. c #060606",
"y. c gray3",
"u. c gray82",
"i. c #C3C3C3",
"p. c #2F2F2F",
"a. c gainsboro",
"s. c gray11",
"d. c #232323",
"f. c LightGray",
"g. c #FDFCFD",
"h. c gray47",
"j. c #939393",
"k. c gray76",
"l. c gray83",
"z. c #393939",
"x. c gray15",
"c. c #323232",
"v. c gray46",
"b. c #D8D8D8",
"n. c #9D9C9D",
"m. c #B6B6B6",
"M. c #161616",
"N. c #1E1E1E",
"B. c gray7",
"V. c #A0A0A0",
"C. c #F7F6F7",
"Z. c gray30",
"A. c gray19",
"S. c gray54",
"D. c #DDDDDD",
"F. c gray75",
"G. c #272727",
"H. c #CBCBCB",
"J. c #F4F3F4",
"K. c #1D1D1D",
"L. c #3C3C3D",
"P. c gray39",
"I. c gray56",
"U. c gray89",
"Y. c #E7E6E7",
"T. c #2D2C2D",
"R. c #4A4A4B",
"E. c gray49",
"W. c #313131",
"Q. c #BBBBBB",
"!. c #585858",
"~. c #8B8A8B",
"^. c #909090",
"/. c gray13",
"(. c #4B4B4B",
"). c #CECECE",
"_. c #FCFBFC",
"`. c #F3F2F3",
"'. c #717171",
"]. c #151515",
"[. c gray18",
"{. c #B1B1B1",
"}. c gray80",
"|. c gray16",
" X c #A9A9A9",
".X c gray9",
"XX c #3C3C3C",
"oX c gray61",
"OX c #434343",
"+X c #EBEAEB",
"@X c #F0F1F0",
"#X c #C6C6C6",
"$X c gray64",
"%X c #D5D5D5",
"&X c #AAAAAA",
"*X c gray34",
"=X c #AFAFAF",
"-X c #727272",
";X c #AEAEAE",
":X c #5F5F5F",
">X c gray66",
",X c #2D2D2D",
"<X c #D0D0D0",
"1X c #A8A7A8",
"2X c #BCBCBC",
"3X c #606060",
"4X c #3F3F3F",
"5X c gray31",
"6X c #929292",
"7X c gray40",
"8X c gray29",
"9X c gray50",
"0X c #646464",
"qX c gray57",
"wX c #7E7E7E",
"eX c #767676",
"rX c #555555",
"tX c #A4A4A4",
"yX c gray78",
"uX c gray22",
"iX c gray35",
"pX c #979797",
"aX c #9F9F9F",
"sX c #9B9B9B",
"dX c #171617",
"fX c #898989",
"gX c #888888",
"hX c gray58",
"jX c #B4B4B4",
"kX c gray79",
"lX c gray81",
"zX c #A7A7A7",
"xX c #989898",
"cX c gray60",
"vX c #959595",
"bX c #808080",
"nX c #E9EAE9",
/* pixels */
"  . X o O + @ # o $ %   &   % $ o # @ + * o X % = & - % ; & : . > * , > . < & ; % - & = . 1 , * + @ # o 2 % 3 & 4 % $ o O @ + # ",
"5 O = 1 $ : # $ 1 4 O 5 > - O 4 > $ # : X 1 = O ; > 3 O   > 2 # < X 1 < # 2 >   O 3 > ; O < 1 X : # 2 > 4 O - > 5 O = 1 $ : : $ ",
"6 7 # 8 @ o & + 8 : 7 ; 8 5 7 < 8 > & o @ % O 7 2 8 3 7 4 8 1 9 , . % * 9 X 8 4 7 3 8 $ 9 O % @ , & > 8 < 7 - 8 ; 7 : 8 + o o + ",
"3 ; 5     5 5   4 - ; 3 4 3 ; - 4   5 5     5 ; 3 4 - ; - 4 3 5 5     5 5 3 4 - ; - 4 3 ; 5     5 5   4 - ; 3 4 3 ; -     5 5   ",
"4 8 1 9 , . % * 7 X 8 4 0   8 $ 7 O % . , 9 > 8 < 0 - 8 2 9 : 8 @ & & + 8 : 7 ; 8 - 0 < 8 > 9 o . 8 O 7 $ 8 3 0 4 8 X 9 * % . * ",
"3 2 5 = 4 2 2 4 = 5 2 3 = 3 2 5 = 4 2 ; 4 = ; X ;   4 = 9 q w : -   - $ 2   = - 2 - = 3 $ ; = 4 ; 2 4 = 5 2 3 = 3 2 5 = 4 2 2 4 ",
"5 9 # % + o o > 8 : 7 ; 8 5 7 < 8 > & o . 8 o e r t y u i p a s d f g h 7 + 8 4 7 3 8 , j k % @ , & 1 8 < 7 - 8 ; 7 : 8 + o o > ",
"5 * < + 1 O O X + = , 5 @ - , = + X O = : l z x c v v v v v v b n m M N B V 3 5 # * C Z A S X 1 # O $ + 4 , - @ 5 * = + X O O X ",
"  . X , O + + # o $ .   o   . 2 o < > D z F G H J a K L P I U Y T R u E W Q ! ~ ^ / ( ) v _ 0 O > @ : o 2 . 3 o 4 . $ , # + + # ",
"  % X & * @ . O & $ 8   9   8 $ , w ` ' ] [ { } |  .3 8 X * 4 % - ..l X.y N J G a o.[ b v O.+.* + . # & 2 8 3 9 4 8 X & O @ @ O ",
"- # = X $ : : 2 1 4 # 5 1 - # 3 , @.#.$.o.%.&.# $ > 3 #   1 2 : = 1 + , *.{ [ =.$.M #.-.v ;.: X < : 2 1 4 # - 1 5 # 4 1 $ : : 2 ",
"6 7 # 8 @ o & + 8 : 7 ; 8 5 9 7 :.>.,.c <.< < 7 2 8 3 7 4 8 1 9 , . % * o ..1.2.M M b b ,.;.- . , 9 > 8 < 7 - 8 ; 7 : 8 + & o + ",
"3 - - 3 3 - - 3 3 - - 3 3 3 5 3.b ,.v 4.5.5 - - 3 3 3 - - 3 3 - - 3 3 - - ; 0 <.M =.6.7.8.N 9 - - - 3 3 - - 3 3 3 - - 3 3 - - 3 ",
"4 8 1 9 , . % * 7 X 8 4 0 5 9.E #.#.#.0.: 9 > 8 < 0 - 8 ; 7 # 8 @ o & + 8 : & q q.w.$.e.o.Z 5., . 8 O 7 $ 8 3 0 4 8 X 9 * % . * ",
"3 X ; < = $ $ = : ; X 3 : 4 r.t.y.) 2.u.  < ; X   : - X 5 : 4 X 2 < < 2 X 4 : $ i.G v w.c p.a.4 2 $ 4 : 5 X 3 :   X ; : = $ $ = ",
"5 9 # % + , o > % < 9 ; 8 u.s.,.8.,.d.f.. % # 9 2 8 3 9 4 8 X & * g.. * & X 8 4 & h.$.t.] A 9 . , & 1 8 < 9 - 8 ; 9 : % + o o > ",
"5 , < + 1 O * X @ = , 5 8 j.-.,.] W x k.@ + : , ; . 3 o 4 @ $ , # > + # , $ @   * l.z.y.7.x.+.+ O * X @ = o - . ; , < @ 1 * O X ",
"  @ $ * # > + # , 2 @   & y v -.8.Q c.I : * X @ 4 o - . ; , < @ 1 O * 1 @ < , 5 . ; v.] ] x u.: > + : , 2 . 3 o 4 @ $ , # + > : ",
"  8 1 & * . . O 9 $ 8   b.a v -.>.c [ ( n.o + 8 = 9 - 8 ; 9 : % + o o + % : 9 ; 8 2 m.M.c G h O @ % # 9 $ 8 3 7 4 8 X & * . . O ",
"- < 4 $ 2 = < 2 $   : ; j N.-.#.-.,.7.B.p.V.a.  2 X 3 :   X ; < = C.$ = < ; X 3 : - * Z.A.i a.X = < ; $   : - X 5 : 4 $ 2 < = 2 ",
"6 7 # 8 @ o & + 8 : 7 X u.o.8.y.-.-.>.) x x N S.D.8 2 & 4 8 1 9 , . % * 9 X 8 4 0 3 8 j ~ F.$ . o 9 > 8 < 0 - 8 ; 7 : 8 + & o + ",
"- 3 3 - - 3 3 - - 3 3 2 k.6.,.#.8.-.-.-.M G.c 7.n t V.H.& ; $ ; 5 J.- 3 3 - - 3 3 3 - ; 5 ; 5 - 3 3 - - 3 3 - - - 3 3 - - 3 3 - ",
"4 8 1 9 , . % * 9 X 8 - ~ B.,.=.t.-.-.-.w.=.] w.B.[ y.K.L.P.I.| q U.O 8 8 : 7 ; 8 - 7 < 8 > Y.o @ 8 O 7 $ 8 3 7 4 8 X 9 * % . * ",
"3 1 2 : < X X = # ; 1 - h s.,.=.-.-.-.-.-.-.M.J p.[ v ) 7.v -.M T.R.E.~ 9 4 = ; 1 - # 4 1 2 : < $ X = # ; 1 3 #   1 ; # < X X = ",
"5 & : % + , o > % < 9 2 O W.v #.t.>.-.-.-.-.w.W M.) [ K.x -.-.6.>.c w.B.i X.Q.w , - 8 $ & # . + * o 1 % = 9 - 8 ; 9 : % > , , > ",
"5 o : @ > * , 1 . < o ; > !.v -.>.-.-.-.>.8.-.>.] 8.b b b >.-.>.#.y.y.t.b -.B.n S.a.8 $ o : @ > O , X . = o - % ; o < . 1 * * 1 ",
"  + $ O : 1 > : * 2 +   : ~.-.-.-.-.-.-.w.w.=.b b =.t.b -.-.-.-.t.t.t.-.8.y.t.>.b c.^.0 % $ O # 1 > < * ; + 3 *   + 2 * : > 1 : ",
"  8 1 & * . . * 9 X 8 4 & H./.v >.t.-.>.b 8.] >.>.8.) y.>.-.-.] >.6.2.,.>.] 8.y.t.,.8.(.)._.& , @ % # 9 $ 8 3 7 4 8 X 9 * . . O ",
"- =   2 ; = = ; 2   = - $ `.'.,.#.-.>.t.) c ].].=.>.>.>.b w.#.#.>.c c ,.>.$.b B.8.8.$.,.[.{.X 2 4 = ; 2   = - $ - =   2 ; = = ; ",
"6 7 # 8 @ o & + 8 : 7 ; 8 2 }.c.v -.8.y.$.y.8.[ #.t.8.-.-.t.8.8.,.H o.,.>.w.) |.c ) [ =.#.E Q.8 o 9 > 8 < 0 - 8 ; 7 : 8 + & & + ",
"- 4   ; 5     5 ; 3 4 - ; - - m.N.v >.t.-.=.c -.-.-.>.-.-.-.>.] >.s.w.8.] $.6.E 6.y.#.w.w.-.[.f.- 4 5 ; 3 4 - ; - 4   ; 5     5 ",
"4 8 1 9 , . % * 9 X 8 4 7   8 1  Xm ,.$.-.>.B.8.-.-.t.-.-.-.-.-.>.w.y.( 8.8.=.b ] >.t.M ) y.v @.> 8 O 7 $ 8 3 7 4 8 X 9 * . . * ",
"  > 2 O : 1 1 < O 2 >   * 3 > ; < k.q.#.t.$.#.#.>.#.#.t.-.-.-.-.>.8.-.8.t.-.8.b =.$.y.y.].6.b .X&.@ < O ; + 3 *   > 2 O : 1 1 < ",
"5 & : . > , , 1 . < & 5 % 5 & < . + a.3.XXH M ) =.b -.>.-.-.-.-.-.-.-.>.>.-.>.t.8.w.#.b $.#.#.b Y * 1 % = & - % ; & < . > , , 1 ",
"5 & : . > , , 1 . < & 5 % 5 & < . 1 * # q oXOXc y.=.-.-.-.-.-.-.-.-.-.-.-.-.-.-.-.b 6..Xb b -.v W. .> % = & - % ; & < . > , , 1 ",
"  > 2 O : 1 1 < O 2 >   +X3 > ; O < 1 X = = O F.` ! ( 8.v v v -.-.-.-.-.-.-.-.-.-.8.[ M ].o.>.v W e   O ; > 3 O   > 2 O : 1 1 < ",
"@X8 1 9 , . % * 9 X 8 4 7   8 $ 9 O % . , & > 8   5.#Xr S 4.N.=.v v v ,.-.-.-.-.,.t.] $.] #.-.#.] $X= 7 $ 8 3 7 4 8 X 9 * . . * ",
"- 4   ; 5     5 ; 3 4 - ; - 4 3 ; 5     5 5   4 - ; ; 5 - : %X&XP *XJ $.v v ,.-.$.[ ( =.M.] ,.#.>.I $ ; 3 4 - ; - 4 3 ; 5     5 ",
"6 7 # 8 @ o & + 8 : 7 ; 8 5 0 < 8 > & o @ 8 O 7 $ 8 3 0 4 8 + * : > 0 =X-Xz.) v M 2.c ] y.] b #.v / @ 8 < 0 - 8 ; 7 : 8 + & o + ",
"- =   2 ; 4 = ; 2   = - 2 - =   2 ; = 4 ; 2   = 5 2 3 = 3 2 5 = 4 2 $ 5   7 ;X:Xo.) o.].b .X=.8.v / 2 2   = - 2 - =   2 ; = 4 ; ",
"  8 1 & * . . * 9 X 8 4 7   8 $ 9 O % @ , & 1 8 = 7 - 8 ; 7 # 8 + o o + 8 < , 4 >XJ 2.,X|.N.>.-.,.B # 9 $ 8 3 7 4 8 X 9 * . . O ",
"  + $ O : 1 > : * 2 +   * 3 . $ * : > 1 # O $ + 4 * - + 5 * < + X # O X + = * ; % H.U @./.2.,.-.t.S = * ; + 3 *   + 2 * : > 1 : ",
"5 o : @ > * , 1 . < o 2 <X1XC 2X+ 1 , * > @ : o 2 % 3 & 4 . $ , O + + # o $ .   o ; }.3Xw.c >.-.v L + . = o - % ; o < . 1 * * 1 ",
"5 & : % + , o > % < 9 $ V 4XG 5X^ + o , + . # & 2 8 3 9 4 8 X & * @ @ O & X 8 4 9 - 3 Z.v [ c >.>.C . % = 9 - 8 ; 9 : % > , , > ",
"3 1 2 : < X X = # ; 1 ; j.( N.s.6X3 X $ < : 2 1   # - 1 5 # 4 X $ : : $ 1 4 # 5 1 - : 7X>.y.#.,.6.k.3 # ; 1 3 #   1 ; # < X X = ",
"4 8 1 9 , . % * 9 X 8 5 6XH /.M.8X5.8 . , 9 > 8 = 7 - 8 ; 7 # 8 @ o & + 8 : 7 ; 8 - , 9X$.s.) b i O # 7 $ 8 3 7 4 8 X 9 * % . * ",
"-   3 - - 3 3 - - 3   2 oXA.0Xn W oX5 3 - - 3   - 5 3   3 5 - 3 3 - - 3 3 - 5 3   3 2 qXe.s.w.M.wX3 - 5 3   - 5 -   3 - - 3 3 - ",
"6 7 # 8 @ o & + 8 : 7 $ &.<.eXrXA.OXh * @ 8 O 7 $ 8 3 0 4 8 1 9 , . % * 9 X 8 4 0 3 8 tX$.$.y.[.yXo > 8 < 0 - 8 ; 7 : 8 + & o + ",
"- : 4 $ 2 < < 2 $ 4 : 2 ;XQ uX(.iX_ pX: $ $ 4 : 5 X 3 :   X ; < = C.$ = < ; X 3 : - * v.7.7.#.1.O < ; $   : - X - : 4 $ 2 < < 2 ",
"  8 1 & * . . O 9 $ 8 5 ^.o.M.M i a p.V.O & 1 8 = 9 - 8 ; 9 : % + o o + % : 9 ; 8 $  X4XM.].H &.% % # 9 $ 8 3 7 4 8 X & * . . O ",
"  @ $ , # > + # , 2 @ ; ^.B.W 2.[ 6.w.G.V # X @ 4 o - . ; , < @ 1 O * 1 @ < , 5 8 q %.G F [.C : > + : , 2 . 3 o 4 @ $ , # + > # ",
"5 , < + 1 O * X @ = , X aXG.[.;.W N.E ,X4.l < * ; @ 3 o 4 @ $ * # > + # , $ @ 5 5.0XW.[ 7.P $ > O * X @ = , - . 5 , < @ 1 O O X ",
"5 9 # % + o o > % < 9 X sXp.( G c.W.p K.dXA d l.1 8 3 9 4 8 X & * g.. * & > 8 H.z N.p.w.:.7 8 @ , & 1 8 < 9 - 8 ; 9 : % + o o > ",
"3 X ; < = $ $ = : ; X ; qX' i x.Q G./.i .X6.7.O.oX..5 @ 2 =   1 $ 4   > X j fXG v [ s.gX  C.< = 2 $ 4 : 5 X 3 :   X ; < = $ $ = ",
"4 8 1 9 , . % * 7 X 8 5 hXx W.W .XM.d jXOX=.=.] ) p.t =XkXlX..: & <XF.zXX.H >.v >.i r < 8 > 9 o . 8 O 7 $ 8 3 0 4 8 X 9 * % . * ",
"3 - - 3 3 - - 3 3 - - 2 xXN.K.' c.cX= $ w vX;.] v b M.w.M.G m c.,XF ].t.v v #.A P ..; - - - 3 3 - - 3 3 - - 3 3 3 - - 3 3 - - 3 ",
"6 7 # 8 @ o & + 8 : 7 $ jXOXXXiX#X+ & o . 8 D.r X.u s.=.-.$.>.v v v y.].|.%.$Xj & - 8 $ 7 O % . , 9 > 8 < 7 - 8 ; 7 : 8 + & o + ",
"- # = X $ : : 2 1 4 # 5 3 0 D.9 > 2 : < $ X 4 4 ; O <XjXaXqXbX9XP ^.tXF. .- . - # 3 1 ; # = X $ < : 2 1 4 # - 1 5 # 4 X $ : : 2 ",
"  % X & * @ . O & $ 8   9 3 8 X & # . @ * o 1 % = & ; 8 1 * 4 8 % : : . 8 < 9 ; 8 - 9 < % 1 o nX+ . # & 2 8 3 9 4 8 X & O @ @ O ",
"  . X , O + + # o $ .   o   . 2 o # @ + O , X . = o - . ; o < @ > * * 1 @ < o 5 . - o = . X , O > @ : o 2 . 3 o 4 . $ , # + + # ",
"5 * < + 1 O O X + = , 5 @ - , = + X O # 1 > < * ; @ 3 ,   + $ * # > > : * 2 +   , 3 @ 2 * < > 1 # O $ + 4 , - @ 5 * = + X O O X ",
"5 9 # % + o o > 8 : 7 ; 8 5 7 < 8 > & , @ % # 9 2 8 3 7 4 8 1 9 * . . * 9 X 8 4 7 3 8 $ 9 O % @ , & 1 8 < 7 - 8 ; 7 : 8 + o o > ",
"3 2 5 = 4 2 2 4 = 5 2 3 = 3 2 5 = 4 2 ; 4 = ; 2   = - 2 - =   2 ; = = ; 2   = - 2 - =   2 ; = 4 ; 2 4 = 5 2 3 = 3 2 5 = 4 2 2 4 ",
"4 8 1 9 , . % * 9 X 8 4 7   8 $ 9 O % . , & > 8 = 7 - 8 ; 7 # 8 @ o & + 8 : 7 ; 8 - 7 < 8 > & , @ % O 7 $ 8 3 7 4 8 X 9 * . . * "
};
