/* XPM */
static char *f2a9c47330ef4fb1eaacdbb43c0fd34f79hrtXYRBu4SUPxK[] = {
/* columns rows colors chars-per-pixel */
"64 64 250 2 ",
"   c #040309",
".  c #02010C",
"X  c #0A020B",
"o  c #13050C",
"O  c #020214",
"+  c #090213",
"@  c #050916",
"#  c #090913",
"$  c #03051A",
"%  c #09041C",
"&  c #050B1C",
"*  c #090C1C",
"=  c #170818",
"-  c #09121E",
";  c #13131A",
":  c #250E1C",
">  c #060C21",
",  c #0A0D23",
"<  c #070A28",
"1  c #071223",
"2  c #0A1324",
"3  c #0C1A25",
"4  c #06142B",
"5  c #0B152A",
"6  c #0C1B2C",
"7  c #161A26",
"8  c #121B2D",
"9  c #140531",
"0  c #061331",
"q  c #091532",
"w  c #0C1C33",
"e  c #0C1D39",
"r  c #121D33",
"t  c #161A38",
"y  c #2E0E25",
"u  c #0E202D",
"i  c #12242C",
"p  c #18272A",
"a  c #1B362C",
"s  c #0E2234",
"d  c #0E233A",
"f  c #132334",
"g  c #1A2734",
"h  c #142A34",
"j  c #13253B",
"k  c #19263C",
"l  c #142A3C",
"z  c #1A2C3D",
"x  c #193336",
"c  c #1B333C",
"v  c #1E3A3C",
"b  c #2C302C",
"n  c #393A25",
"m  c #212735",
"M  c #26393A",
"N  c #511829",
"B  c #6B1D2C",
"V  c #4E3934",
"C  c #703533",
"Z  c #274539",
"A  c #35443B",
"S  c #315033",
"D  c #3C672E",
"F  c #484F2F",
"G  c #1B1A45",
"H  c #271543",
"J  c #0F2444",
"K  c #152D42",
"L  c #1B2C42",
"P  c #152A48",
"I  c #163147",
"U  c #1B3345",
"Y  c #1E3B43",
"T  c #1B344A",
"R  c #1D3A4B",
"E  c #1C3953",
"W  c #252647",
"Q  c #243647",
"!  c #223D43",
"~  c #243D4C",
"^  c #233C52",
"/  c #253B55",
"(  c #363454",
")  c #4D3972",
"_  c #1F414F",
"`  c #234245",
"'  c #24444A",
"]  c #254C4D",
"[  c #2B4949",
"{  c #374949",
"}  c #2A524A",
"|  c #2D524C",
" . c #35564B",
".. c #234353",
"X. c #2B4454",
"o. c #2C4C53",
"O. c #254759",
"+. c #2B4C5C",
"@. c #324C59",
"#. c #2C5558",
"$. c #335A54",
"%. c #355658",
"&. c #3B6149",
"*. c #356359",
"=. c #3A615E",
"-. c #274962",
";. c #2D5568",
":. c #2F526D",
">. c #335563",
",. c #355B63",
"<. c #3A5C67",
"1. c #345C6B",
"2. c #345A74",
"3. c #3B6263",
"4. c #386667",
"5. c #3C636C",
"6. c #3B6473",
"7. c #396877",
"8. c #3C717D",
"9. c #4C534F",
"0. c #456A59",
"q. c #4F7454",
"w. c #4A4E6E",
"e. c #705C65",
"r. c #45686A",
"t. c #507468",
"y. c #456B77",
"u. c #4B7877",
"i. c #45727B",
"p. c #49747D",
"a. c #547B78",
"s. c #8B3137",
"d. c #B2393A",
"f. c #C33B3D",
"g. c #94403C",
"h. c #B83C42",
"j. c #C73D46",
"k. c #C93F51",
"l. c #9E6262",
"z. c #C7434C",
"x. c #CB4957",
"c. c #CF515B",
"v. c #CA5964",
"b. c #D05E64",
"n. c #D17576",
"m. c #59834E",
"M. c #6F8F52",
"N. c #74A554",
"B. c #598768",
"V. c #5A847A",
"C. c #69926F",
"Z. c #79A964",
"A. c #889352",
"S. c #98A35A",
"D. c #859964",
"F. c #9CA57D",
"G. c #DF867C",
"H. c #96C45A",
"J. c #98CA70",
"K. c #A9D968",
"L. c #BAE76F",
"P. c #C2ED6A",
"I. c #355C85",
"U. c #3C6D8B",
"Y. c #6B4C93",
"T. c #446E84",
"R. c #467784",
"E. c #4B7A84",
"W. c #4B7D8A",
"Q. c #547B87",
"!. c #4F7B96",
"~. c #666B99",
"^. c #754EB4",
"/. c #7D58C0",
"(. c #9458B8",
"). c #8765AD",
"_. c #D37B83",
"`. c #825FC2",
"'. c #9D5CDD",
"]. c #A45BD5",
"[. c #916FCF",
"{. c #AA6DD7",
"}. c #A357E1",
"|. c #AE57E3",
" X c #A55AE1",
".X c #AC5BE4",
"XX c #B45CE3",
"oX c #9F67E0",
"OX c #A463E1",
"+X c #A869E3",
"@X c #B765E5",
"#X c #A877E4",
"$X c #B679E7",
"%X c #C66AE7",
"&X c #C777E6",
"*X c #D377E9",
"=X c #4C878C",
"-X c #54858B",
";X c #498693",
":X c #588995",
">X c #5A959A",
",X c #688D93",
"<X c #5695A7",
"1X c #6698A5",
"2X c #7293AF",
"3X c #71ACB3",
"4X c #7FC38E",
"5X c #71BCC3",
"6X c #74C6CA",
"7X c #92A299",
"8X c #8492B6",
"9X c #D18D8E",
"0X c #E0A694",
"qX c #D6B1AD",
"wX c #E2B4AE",
"eX c #A4DEAD",
"rX c #A9DBAA",
"tX c #E7D0B9",
"yX c #8B95C3",
"uX c #969BCA",
"iX c #918DD7",
"pX c #A894D8",
"aX c #92B1CD",
"sX c #B3B0D0",
"dX c #AA84E4",
"fX c #B88FE7",
"gX c #A793E4",
"hX c #B8A3E3",
"jX c #CC88E8",
"kX c #DA88EA",
"lX c #D895EB",
"zX c #E09AEB",
"xX c #D6B0EB",
"cX c #E2A9EC",
"vX c #E2B1E8",
"bX c #93C9CF",
"nX c #AAD6DB",
"mX c #A9D2E1",
"MX c #98E0E1",
"NX c #AFE6E8",
"BX c #D0CBD0",
"VX c #E5CAC6",
"CX c #EAE2D3",
"ZX c #D3CCE9",
"AX c #E5C5EC",
"SX c #E7D9EC",
"DX c #E7CEF0",
"FX c #CEE7EC",
"GX c #E9EAEC",
"HX c #EBE3F0",
/* pixels */
".   . .   . $ O $ > [ g % > w ] ] ] ] ] ] _ s 4 > > & 1 i ] c s l #.B.%.R U K e u s s e e e e d e 0 0 0 0 e d d l J d q 0 4 0 K ",
"@ @ O O . O $ $ $ > [ r $ > 6 U ` ] #.] ] ' 6 & & > > 1 s ] l h l } ,X%.R E ,.~ _ ;.;.;.-.I s d e 0 0 0 d d J d d s q 4 t K L T ",
"@ & & 1 @ @ $ O $ 5 o.8 $ > 2 , 1 6 l ` ] _ 3 & & & > 1 h ] h s l ] 4Xt.E _ 4.1.4.8.=X;X;X;.0 0 0 0 0 d d d d d e 4 4 e ..<.X.R ",
"@ & & 2 1 1 5 1 $ 8  .2 $ $ 2 $ $ $ & > u h 3 & > & 1 1 h ] h s l ] ,X%.R ..;.2.8.;X3X<XU.O.0 4 4 4 4 0 q q q 4 4 d E R U ..+.L ",
"O O $ $ $ & 1 4 5 g  .1 $ > < $ $ $ $ $ $ $ $ $ $ & & 1 h ` u 6 l c #.] _ O.;.8.>X5X3X8.E d d s q 0 w w w q < 0 w L ^ K j l 1.>.",
"O $ O $ O $ $ $ & g @.& O $ 5 > $ $ $ O O $ O $ O $ O & h Y 6 6 s l I I E -.8.;X>X=X} l d d d q 4 e d d s w w K ~ R R d s d <.i.",
"$ O $ O $ $ O O O c [ $ O & 6 5 2 1 & @ $ $ $ O $ $ O O i v 3 3 s h l I _ ;.8.>Xp.T l l d s w w d d s 6 4 w R ' ~ K K d j ^ T.:X",
"O $ O $ O $ $ O $ M ! $ O $ 1 & 1 2 5 4 < & & $ O O O $ h v & @ & 1 s l ..4.-X7XqX7Xa.+.T R l I d w 4 w d R O.U K K l U 6.;XW.<X",
"$ O O $ $ O O O $ ! z O O O & $ O $ & > 4 1 3 1 & & @ O x Y @ O O O $ & w E 7XtXHXnX,XQ.bX3XU.4.1.1.K I I U I l d I ;.:X>X=X8.1X",
"O $ O O O O O O * ! g O $ $ & O $ O $ O O & & 1 3 2 1 & h ` @ O O O O $ $ $ 7 9.Q.,XbXNXNXMX6X>X6X3XO.U l l l l ..=X1X:XR.U.i.>X",
"$ O $ . O O O O , [ 8 O O $ % $ $ $ O O O @ O O & & 1 1 x Z & O O O O O O $ $ $ > j >.,XbX6X6X6X5X;X' U l l U 6.>X>X-XR.R.1._ i.",
"$ O $ O O O . O , [ 7 O O $ & O O O O O O O O O O O O $ x Y & $ $ $ $ O O $ $ O $ $ > 1 l O.W.;X>X;.R p.R #.:X>X-X=XW.6._ R +.R.",
"% , % % + O O $ 2 [ - O $ $ O O O O O O O O O . O O . O x M @ O O $ O $ $ O $ $ $ O $ > > < r w d u c :Xy.>X:X=XE.8.O.T O.6.;.;.",
"= = = = = % % $ 7 [ * O O $ O @ O O . O . O O O . O O & v v O O O O O O O $ O $ O $ O % 5 5 , > & 4 X.=X7.y.i.8.#.R _ ,.;._ I O.",
"y : y : : : = % 7 %.* O O @ O O O O O . O O O O O . O @ v x . O O O O O O O . O & $ & 2 5 > > 2 Q y.R.>XE.>.Q w I ;.;._ I E 4.7.",
"N N N N y y : = g { $ O O $ O @ O O O O O O . O O O O @ Z h O . . O O . O O O O 2 5 1 * $ & l 5.W.r.>.:Xy.< 0 U ~ f 5 K ;.1.O.E ",
"l.d.s.s.s.B N : m M * O O $ O O O O . O O O O O O O O @ ` a O O O O . O . O $ % 7 f , $ < / y.y.>.>.+.y.6.L Q k $ 4 T / k 4 w ^ ",
"wXk.j.j.f.d.d.N M M + O . $ O O O O O O O O O O O O O - [ i . O . . O O O . * * % f / j @.r.-.O./ k 5 y.R.z < , W / j $ $ t T L ",
"vXb.k.j.f.f.f.N { 9.A M M m @ O @ . O O O O . O O . @ - [ p   . O . O . % 2 * $ O z >.@.@./ / t > r ^ y.6.5 L ^ j > > t T k < $ ",
"wXv.k.j.j.f.f.C a.0.r.r.t.V.m O O O O O . O O O O O O - [ i . @ O $ + * f 7 O , ( p.<.L L t & 5 W L , X.R.T w % & k ^ t > O , t ",
"_.x.k.k.j.h.l.9.7 * # * * 2 2 @ . O O . O . O O O O @ 3 [ i . O @ f f 8 * * z r.<.>.y.k @ , g z 1 $ t >.i.< % k Q k > O 5 L U t ",
"_._._._.c.v.l.9.+ . . . . . . O O O O O O O O O O O O - [ i . $ 8 m z * 7 ~ r./ Q X.y.6 t g , % 8 k r U 7.k L g % O 8 W Q r $ $ ",
"qXvXVXqX9XqXl./ + . . . O . @ @ O O . O O O O O O O . 3 [ 3 O * 1 , z m X./ L z 5 8 y.Q 8 $ 2 k 6 O * ^ i.f @ $ 6 T L 5 O O , j ",
"9XqXVXVXwXqXe.b + . . . . . u v x h 8 1 @ O O O @ @ & p } p 7 , $ i @.X.z r 8 * 8 X.y.5 5 k 5 @ * r L ^ 7.5 r T L , O $ r L K t ",
"9X_._._.9X9X0.: X     . . . h ] ] ] ` ` c & 2 @ & 8 r.,.} x x 1 - Q %.z 3 * 2 g f f 5.L 6 $ * t k 6 $ j 6.L k > O * t T L t 5 5 ",
"VXb.x.x.x.x.9.= X   . .   . x ] ] ] ] } c & 2 1 ..1XnXa.$.v ` 8 > i +.6 > r r 2 6 Q 5.6 * t z w & < j / 7.5 O , k L j 5 5 5 t k ",
"CX_.x.k.z.h.V o     .     . v } ] } ] #.h < k E.bXNXbXa.$.v ` s 2 5 X.Q 8 1 2 g k 6 >.z k 5 @ 2 L L 5 5 2.z k L t q 6 r k L j 2 ",
"VXwXx.k.j.h.V o     . . . @ v #.#.#.} #.z <.3XNXsX`.2Xa.$.v ` h w L ,.! h U k 2 > z 1.i @ 5 L U w & & k 6.R r 5 w r z L r & O O ",
"wXwXn.z.f.g.V o X     ; 2 - ` $.$.*.$.4.:XbXmXyX^.^./.V.$.v ` h q c +.] %.=.c U o.~ +.j k k < $ > f L K >.I w l U j 2 $ O @ 8 k ",
"tXwXqXn.z.g.n o X . # M M g } *.*.4.-XbXnXaX^.^.^.^.yXu.&.v ` h s R +.I ] r...$.B.o.;.E I e w J L J t f -.U z r , + O , j L k 5 ",
"tXG.0XG.z.g.b o     + 7 p i $.4.8.1XnXmXiX^././.^.`.iXu.*.v ' s 6 d R c R R I } 0._ -.P E E -.-.:.y.i.2.2.l > O & 8 L z 8 @ . O ",
"wXb.c.z.f.g.y o X   # p b p 4.>XbXMXuX[.'.[.`.[.2X[.iXu.*.v ' s 6 l R Y Y ' I $.t._ -.E -.-.E -.T.1X3X5XW.+.^ K I k < O O $ 2 f ",
"G.c.z.z.f.C : o X   O @ & U 3XmXaX#X X X+X#XiXiXiX[.8Xu.$.v ' f  .Z Y } $.*.' | B.#.O.R _ E -.-.U.2X5X3X;X1.;.P J P J K K R L 6 ",
"b.c.c.z.f.C : o   . O O > w.FXNXoX X+X+XdXfXiXiXaX[.yXu.3.` [ h A v Y v &.0.#.] ] ` ..I E E P P !.bX3X1XR.;.] J I -.1.O.' d w 5 ",
"z.n.G.G.z.F : X X + @ O < Q.GXhXoX+X#XdXgXgXgXiXiX'.yXu.3.` ' u 4 s c } 0.| ] [ v x #.v J J I -.5XMX<X5X;X+.O._ 7.=.t.#._ J K E ",
"c.G.G.G.G.V o X   . # @ - ).GXhXoX+XdXdXgXdXgX#XoX'.uXr.3.Z ' s 6 h U Z v v q.m.m.M.C.-X` I E E 2X2X<X!.7...+.K =.| x 4.;...R R ",
"G.G.0XwX9XV o   . O $ O q 7XSXfX+X+X$XdXdXdX#XOX'.}.uXy.=.` ` 6 u h x a } &.Z.H.K.H.N.B.M e J E 2.-.!.U.U.E O.K +.+...R Y l s d ",
"tX0XG.G.F.V o   . + O > r 8XFXxX$X+X#X#XdXdX#X X'.'.uXy.4.` ` 6 u h I x S C.K.L.N.D D ] h j T 1.y.< / 2.:.R R E E R ..d u s d K ",
"tXCXtXn.l.b + X   O % < t 3XFXDX&X+X#X#X$XgX#X X X'.uX7.4.! ` 3 1 s x a &.4XeXeXB.S a u d d K ^ / J 0 P -.z / I I I K d l K R I ",
"S.9XBXqXe.m X . . + $ < G yXGXGXlX@X+X#XdXgX#X X XoXuX3.%.Y ` 5 1 i x a C.eXeXeX7X*.a u d d P Q.2X!.:.-.-.w ^ T P E E I K J s d ",
"_.9XsXpXe.7 + X . O O < G uXGXGXxX$X+X#XdXdX+X.X}.oXyX4.@.Y ` 1 - 3 p S J.L.L.K.N.D u u I E O.1X2XU.I.!.:.5 T E J w s e e e 6 w ",
"BXZXpX].) 7 O + . + > 9 H sXGXGXDXjX$XdX$XOX X X}.oXyX,.$.v ` & & u a m.L.L.K.N.M.D a u :.7.7.1X2Xe P U.2.5 J J q q q s d I K l ",
"FXZXdX{.w.7 O . + $ + , ( sXGXGXHXjX+XOX.X X}.}.}.oX8X<.$.Y ` 1 - i v N.L.P.H.N.N.S x I ;.O.:.1X<XT w -.:.w q j K K T I K d w 6 ",
"FXZX#X[.) , O + . $ % 9 ( xXGXGXDXlX@X X X}.}.}.}.#X8X%.%.Y ` 5 3 i a m.L.L.H.S.N.a u u R 2.U.:X!.y.G E T 5 2 R I d w 4 4 4 4 w ",
"FXxX$X[.( , O O + $ % < ) ZXHXAXcXkX@X.X X}. X}. XoX2X<.%.! ' j K _ ] C.rXrXeX4XD a u h U.;X!.>XT.I.-./ e 5 @ 4 4 4 4 w d l I I ",
"FXZXjX[.( > O O . $ % 9 ) ZXSXzXlXkX@X|.XX@X X}. XoX2Xr.3.Y ' R I I } C.C.q.J.B.} ] d h 7.1.-.:X!.:.I.I.5 6 * 4 w K U I K l s s ",
"ZXSXjX).W > O O . $ $ 9 ) ZXAXzXkX*X@X.X%X*X|..X XoX2X3.=.v ` l s l } N.q.=.C.m.S a u - 1 & 1 r.w.0 G G 6 j > 5 s d w w 6 4 4 u ",
"ZXHXlX^.W > $ . O + % , Y.vXcXkXkX%X|.|.%X*X%X@XXX{.2X5.3.Y ~ h & 1 S B.$.$.u.4.&.i @   @ O > %.y.0 0 < 5 r 1 1 4 4 4 6 d l ..>.",
"SXHXlXY.L > $ + . $ , 9 Y.xXzXkXkX%X@X%X%X%X%X%XXXoX2X,.3.c Y h - 8 u.0.u h ` >.v - @ # & r j L @.q , < & 6 2 2 L @.5.r.6.y.5.,.",
"GXSXlXY.H > $ . . $ < 9 ).vXzXkX*XXX%X%X%X%XXX|.|.#X,X3.=.c Y & & 7 Q.r.! ! k h c 5 @ @ O O O & @.r 5 8 X.y.r.m @.p.5.+.Y l h s ",
"SXvXjXY.t > O + X O % 9 ).zXzXkX*X|.@XXX|.}.|.}.'.#X,X<.3.c c & @ 5 Q o.5.%.z 4 s 6 @ # * p Q %.r.L W 6 %.,._ - 1 h l f u s s u ",
"AXkX{.) t $ O . + O % 9 (.zXzXzX%X|.XX|.|.|.}.}.}.#X,X<.%.x h @ 1 6 i c i.>.f 5 z ! 2 7 Q y.5.4.^ 8 6 & 6 u 6 & O i h s 6 6 u 6 ",
"vXkX@X) 7 $ O O + $ % H (.zXcXzXXX|..X.X.XOX}.}.'.#X,X@.| h f 1 1 * 3 ~ 5.3.o.Q z Q - & u l u u k / 5 5 3 6 u & . 1 s u 6 6 6 6 ",
"lXkX{.) t O O O . + % 9 (.cXDXkX|..X.X+X+X+X#XpXiXaXQ.$.| u s & r Q ' Q z Q z z z z . . & s 4 u k m 2 @ - 4 u - . @ u 4 6 6 6 4 ",
"cXkX].( < $ . + O + % H ].AXAX%X+X#X#XgXgXaXbXaX3X1X,. .| i u # 5 s f ~ <.y.c m z k O . - u 6 6 5 2 -   & 3 4 2   . & 3 6 6 3 4 ",
"zX*X).W , $ . + O . = y {.ZXZXgXuXaX3X3X1X3X1X1X!.-X%.$. .i 6 . & 6 6 f o.,.z g @ @ . O - 6 6 6 5 2 2 # @ 2 1 3 . . . @ 3 4 1 3 ",
"vX@X^.H % O . . . . + G 8XaX8X1X:X:X!.W.W.Q.:X:XE.E.%. .| i 3 . - 6 u x { g g { ;     . 3 6 6 6 3 1 - @ @ 1 1 2 @     @ 1 1 & 1 ",
"zXXXY.m % . . . . . . r Q.Q.Q.a.E.Q.Q.E.E.E.=XQ.E.p.|  .| i 3 . & 6 4 M  .8 i { #     . 2 4 3 4 2 1 - @ @ & & &       & 1 & & & ",
"hXuXw.m O O .   .   . f y.R.R.p.E.p.E.p.R.p.p.p.p.p.|  .| i -   & 5 6 h { i g M # # # . 3 3 1 4 > 2 & & @ & @ O     . & & @ @ @ ",
"~.T.~ 7 O . . .       8 y.i.p.p.p.R.y.T.i.i.p.p.i.u.{ 0. .a p ; p b b A A A A b # o X . 1 1 & & * , @ . @ . . O @ @ & & @ @ & & ",
"1.>.{ m ; % X         g ;.<.y.p.u.u.u.a.a.V.V.V.C.C.M.D.A.M.F n n n n A 9.S A n b ;   . $ O $ @ 1 1 - , 2 1 2 5 5 4 1 5 4 4 2 1 ",
"[ { ( m 7 7 7 ; ; ; ; M %.%.1.5.4.C.Z.D.D.D.S.S.S.S.S.S.A.A.V n n b b b A M ; i M i 3 2 2 5 8 6 8 r 6 w r 6 w 5 w 5 5 5 6 4 5 5 ",
"p b 7 # # # # # . # = ; ; z %.>.%.e.A.A.A.A.A.A.M.M.M.e.q.q. .] Z ` Y c z l I Y U R U L U U L l l l j f w w w 5 4 5 5 > 1 1 > & ",
"9. . .9.M A A A M A M M M  .4.5.r.t.q.q.t.a.-XV.:X=XE.R.6.1.1.6.#._ O.R l c U I I K l K U U l d s w w w 5 4 , < & @ & $ $ $ O @ "
};
