/* XPM */
static char *result[] = {
/* columns rows colors chars-per-pixel */
"64 64 251 2 ",
"   c #F1F1F1",
".  c #FBFBFB",
"X  c gray96",
"o  c gray97",
"O  c gray98",
"+  c #F3F3F3",
"@  c gray99",
"#  c #F6F6F6",
"$  c gray95",
"%  c #F4F4F4",
"&  c #F9F9F9",
"*  c #F8F8F8",
"=  c white",
"-  c #F8F8F7",
";  c #FEFEFE",
":  c #F6F7F6",
">  c #F7F8F7",
",  c #D0D0D0",
"<  c #888888",
"1  c gray50",
"2  c #818181",
"3  c gray51",
"4  c #7E7E7E",
"5  c #848484",
"6  c gray82",
"7  c #F3F4F3",
"8  c #FDFDFD",
"9  c gray89",
"0  c #909090",
"q  c #8E8E8E",
"w  c #E9E9E9",
"e  c #CACACA",
"r  c #838383",
"t  c gray52",
"y  c gainsboro",
"u  c gray81",
"i  c #181818",
"p  c black",
"a  c gray49",
"s  c gray76",
"d  c #0B0B0B",
"f  c gray5",
"g  c #FAFBFA",
"h  c gray48",
"j  c #D5D5D5",
"k  c gray91",
"l  c #393939",
"z  c gray32",
"x  c #959595",
"c  c #010101",
"v  c #9A9A9A",
"b  c #4E4E4E",
"n  c gray23",
"m  c gray93",
"M  c #626262",
"N  c #2D2D2D",
"B  c #E2E2E2",
"V  c #656565",
"C  c #6D6D6D",
"Z  c #E4E4E4",
"A  c #2A2A2A",
"S  c gray39",
"D  c gray6",
"F  c gray78",
"G  c #E7E7E7",
"H  c #3C3C3C",
"J  c gray24",
"K  c gray92",
"L  c #F5F5F4",
"P  c #C0C0C0",
"I  c #0E0E0E",
"U  c #989898",
"Y  c gray",
"T  c #D7D7D7",
"R  c #1B1B1B",
"E  c #1D1D1D",
"W  c gray60",
"Q  c gray87",
"!  c #232323",
"~  c #6A6A6A",
"^  c gray70",
"/  c #070707",
"(  c gray3",
")  c #B4B4B4",
"_  c gray15",
"`  c #DDDDDD",
"'  c gray27",
"]  c #434343",
"[  c #EFEFEF",
"{  c #868686",
"}  c #FAFAF9",
"|  c #3F3F3F",
" . c #484848",
".. c gray46",
"X. c #1E1E1E",
"o. c #D8D8D8",
"O. c #565656",
"+. c LightGray",
"@. c gray11",
"#. c #7B7B7B",
"$. c #A2A2A2",
"%. c #020202",
"&. c gray71",
"*. c gray18",
"=. c #B1B1B1",
"-. c gray1",
";. c #A7A7A7",
":. c gray79",
">. c #131313",
",. c gray53",
"<. c #F8F9F8",
"1. c #CBCBCB",
"2. c #111111",
"3. c #CDCDCD",
"4. c #F6F6F5",
"5. c #898989",
"6. c gray8",
"7. c #C8C8C8",
"8. c #5D5D5D",
"9. c gray61",
"0. c #585858",
"q. c #090909",
"w. c #A0A0A0",
"e. c #313131",
"r. c #323232",
"t. c #717171",
"y. c gray10",
"u. c #727272",
"i. c gray90",
"p. c #2F2F2F",
"a. c gray36",
"s. c #EEEEEE",
"d. c #464646",
"f. c #353535",
"g. c gray22",
"h. c gray28",
"j. c #C6C6C6",
"k. c gray7",
"l. c gray55",
"z. c gray69",
"x. c #A5A5A5",
"c. c #F9FAF9",
"v. c gray13",
"b. c #646464",
"n. c #E1E1E1",
"m. c #FEFFFE",
"M. c gray84",
"N. c #767676",
"B. c #F9F9F8",
"V. c #B8B8B7",
"C. c gray4",
"Z. c #B9B9B9",
"A. c #747474",
"S. c #DADADA",
"D. c #8B8B8B",
"F. c gray72",
"G. c #8D8D8D",
"H. c #414141",
"J. c gray42",
"K. c #222222",
"L. c gray85",
"P. c gray14",
"I. c gray43",
"U. c gray58",
"Y. c #0C0C0C",
"T. c gray21",
"R. c #ECECEC",
"E. c gray75",
"W. c #929292",
"Q. c #CFCFCE",
"!. c #161616",
"~. c gray45",
"^. c #101010",
"/. c gray77",
"(. c gray66",
"). c gray2",
"_. c #040404",
"`. c #5F5F5F",
"'. c gray17",
"]. c gray94",
"[. c gray31",
"{. c #E6E6E6",
"}. c #505050",
"|. c #797979",
" X c #D2D2D2",
".X c #AFAFAF",
"XX c gray33",
"oX c gray34",
"OX c #272727",
"+X c #AEAEAE",
"@X c gray67",
"#X c #7C7C7C",
"$X c #C3C3C3",
"%X c gray74",
"&X c #191919",
"*X c gray83",
"=X c #515151",
"-X c #DFDFDF",
";X c DimGray",
":X c gray38",
">X c #F7F8F8",
",X c #EAEAEA",
"<X c gray57",
"1X c #BBBBBB",
"2X c #979797",
"3X c #F5F6F5",
"4X c #6C6C6C",
"5X c gray86",
"6X c #202020",
"7X c gray25",
"8X c #C1C1C1",
"9X c gray26",
"0X c #282828",
"qX c #777777",
"wX c gray62",
"eX c gray19",
"rX c #5A5A5A",
"tX c gray65",
"yX c #535353",
"uX c gray9",
"iX c gray44",
"pX c gray35",
"aX c #373737",
"sX c #060606",
"dX c #9F9F9F",
"fX c gray56",
"gX c #B7B7B7",
"hX c #3A3A3A",
"jX c #BCBCBC",
"kX c #FBFBFA",
"lX c #494949",
"zX c #3E3E3E",
"xX c #676767",
"cX c gray40",
"vX c gray88",
"bX c gray68",
"nX c #A4A4A4",
"mX c #4C4C4C",
"MX c gray80",
"NX c #F7F7F6",
"BX c #CECECE",
"VX c #848483",
"CX c gray20",
"ZX c #B6B6B6",
"AX c gray73",
"SX c #686868",
"DX c gray16",
"FX c #252525",
"GX c #2C2C2C",
"HX c #F3F3F2",
"JX c #F4F5F4",
/* pixels */
"  . X o O + @ + . # # . $ @ + O o X @ $ @ % & & % @ $ @ X o O + @ $ . # # . + @ + O o X . $ @ % & * % @ $ @ X * & + @ $ . # # = ",
"O X * o X & % & X o - X & % & # o * X & % & # # & % & X * o # & % & X o o X & % & X o * X & % & # # * % & % * o # & % & X o O ; ",
"& O . . O . O . * o o # * # * : o o # * # o o o > # * O . . O . O . O O * # * # * # o o # * # > o o o # * # & . O . O . O O O ; ",
", < 1 2 3 4 5 1 6 * # O + @ 7 & o X . + @ % * * % 8 9 0 1 2 3 4 5 4 3 q w . + @ + O o X . + @ % & * % @ + 8 e 2 3 1 5 4 r t y = ",
"u i p p p p p p a . * % O + O X o & % O + & # # & : s d p p p p p p p f s > O + O X o * % O + & # # & + g o h p p p p p p i j = ",
"k l p p p p p p z + o o # * # o o o > # * o o o o @ x p p p p p p p p c v . # * # o o o o # * o o o o * o + b p p p p p p n m = ",
"$ M p p p p p p N B * O % . % & o X O + . X * * X @ V p p p p p p p p p C . % . % & o # O + . X * * X . X Z A p p p p p p S * = ",
"= 0 p p p p p p D F . % . $ O X o & + . + O # # O G H p p p p p p p p p J K . $ O L o & + . $ O X # & + ; P I p p p p p p U ; ; ",
"* Y d p p p p p c v . & X & X * o # & X & # * * * T R p p p p p p p p p E T o & X * o # & X & # * o # & & W p p p p p p f Y . = ",
"# Q ! p p p p p p ~ * & X O X * o # & % O X * * & ^ / p p p p p p p p p ( ) * O X & o # & % O X * * X O # ~ p p p p p p _ ` & = ",
"8 m ' p p p p p p ] [ % . $ O X o & + . $ O # # 8 2 p p p p p p p p p p p { ; $ O % o & + . $ O X # } + $ | p p p p p p  .+ . ; ",
"+ @ ..p p p p p p X.o.. % . % & o # O % O X * * $ O.p p p p p p p p p p p O.$ . % & o # O % O X * * X @ +.@.p p p p p p #.& o = ",
"X @ $.%.p p p p p ( &.@ # * # * o # * # * # o & 9 *.p p p p p p p p p p p *.Z O # * o # * # * # o o # @ =./ p p p p p -.;.. * = ",
"@ # :.>.p p p p p p ,.* . + O X o & + . + & # <.1.2.p p p p c D c p p p p >.3.X O X o * + . + O 4.# & o 5.p p p p p p 6.7.O O ; ",
"$ @ Z N p p p p p p 8.& + @ % & o X . + . % * 8 9.%.p p p p / 0.q.p p p p %.w.= % & o X . + . % * * X O 0.p p p p p p e.K o o = ",
"o o X 0.p p p p p p r.G * o o o o o o o o o o & t.p p p p p i ;.y.p p p p p u.& o o o o o o o o o o * i.p.p p p p p p a.# o & ; ",
". % @ ,.p p p p p p >.:.8 + & X o * % O % & # s.d.p p p p p f.Q g.p p p p p h.m O X o * % O % & # # @ j.k.p p p p p p l.* * O ; ",
"  . & z./ p p p p p -.x.o @ + c.o X . $ @ % O Q v.p p p p p a.+ b.p p p p p ! n.X O o X . $ @ % & * * ;.-.p p p p p ( =.m.# # = ",
"& # O M.R p p p p p p N.. X * # o * X B.X * O V.C.p p p p p l.= q p p p p p C.Z.@ # o * # <.X * # o O A.p p p p p p X.S.* o & ; ",
"O X * m J p p p p p p  .+ X * # o * X & X * O D.p p p p p q.F.= Z.d p p p p p G.@ # o * X & X * # o $ d.p p p p p p H.  # o c.; ",
"  . X * J.p p p p p p K.L.; + O o X . $ @ % * M p p p p p K.y o B P.p p p p p S + O o X . $ @ % & O L.P.p p p p p p I.% . # # = ",
". % * . U.p p p p p p Y.Y o & X o * % O % O w f.p p p p p ] s.O m h.p p p p p T.R.# o * % O % & # O E.d p p p p p c W ; X > O ; ",
"* # o O P I p p p p p p W.O o o o o # * # O Q.!.p p p p p t.& o & ~.p p p p p !.u & o o # * # o o . W.p p p p p p ^./.. # o & ; ",
"  . X & 9 _ p p p p p p M @ % & o X . + @ * (.).p p p p %.$.8 % = w.%.p p p p _.x.; o X . + @ % & * `.p p p p p p '.G % . # o = ",
"@ % * o ].[.p p p p p p g.{.. X o & + . + @ 4 p p p p p k.F * O # 3.6.p p p p p 4 * o * % . + & # w l p p p p p p }.[ . % * O ; ",
"# * o o O |.p p p p p p i  X& o o o * # * $ b p p p p p *.i.& # & i.p.p p p p p b + o o * # * # O  Xi p p p p p p 4 . # * o * = ",
"$ O # o 8 x._.p p p p p )..X* & o X O 7 @ Q _ p p p p p XXX & % . $ oXp p p p p OX9 & # O % . X @ +X).p p p p p ).@X= % O # o = ",
"8 + & o o  X!.p p p p p p #X; X o & + . # $XI p p p p p < O X O $ ; { p p p p p I %XO & + . $ O & #.p p p p p p &X*XX . 7 * . ; ",
"% & # o & G f.p p p p p p =X  * o # & X 8 W p p p p p / z.. * X & & ) ( p p p p p W . # & X & # % z p p p p p p T.k O X & # * = ",
"% & # o & % `.p p p p p p A -XO o # & X . ;Xp p p p p @.*X& * X O o T E p p p p p ~ * # & X O o 9 '.p p p p p p :XX O X & # >X= ",
"8 + & o % ; 5.p p p p p p D F * o & + @ k H p p p p p H [ o X O $ . ,XJ p p p p p n m & + . $ 8 $XI p p p p p p <X; $ . + * . ; ",
"$ O # o & * 1XC.p p p p p c 2X8 o 3XO # L.E p p p p p 4Xo o & % . % . C p p p p p @.*X* O % . & W c p p p p p d 1X* . % O # o = ",
"# * o o * * 5X6Xp p p p p p ~ & o o * O ) ( p p p p p W . o * # * # @ v c p p p p / =.O * # * * 4Xp p p p p p ! y * * # * o * = ",
"@ + * o X . K ] p p p p p p 7XK o & + ; 5 p p p p p I %X@ o X O + O o 8XD p p p p p { @ + . + ].9Xp p p p p p d.[ O + . % * O ; ",
"  . X o & % ; I.p p p p p p E S.& X .   oXp p p p p 0Xi.o o & % @ + @ n.OXp p p p p XX+ . + 8 M.E p p p p p p qX. % @ + O # o = ",
"> o o o o o . wX%.p p p p p / ^ . o * {.eXp p p p p }.+ o o o o o o o + }.p p p p p N Z * o O &.( p p p p p %.$.. o o o o o & ; ",
". % * o X & o 7.2.p p p p p p r O * o 3.>.p p p p p 1 o * o X & % O X . 1 p p p p p k.7.o O * 5.p p p p p p >.7.* & % O X > O ; ",
"  . X o O + 8 -X'.p p p p p p rXX X = wX%.p p p p _.tX= X o O + @ + . O ;.).p p p p %.w.= + . a.p p p p p p *.G O + @ + . # # = ",
"& X * o # * X # yXp p p p p p eX{.& * A.p p p p p i +.* * o # * X & # O 6 uXp p p p p iXo O i.e.p p p p p p pXX # * X & 4.o & ; ",
"& X * o # * X @ 3 p p p p p p k.:.. [  .p p p p p g.R.# * o # * X & # * K aXp p p p p ] s.@ e 6.p p p p p p ,.O # * X & 4.o & ; ",
"  . X o O + @ o z.sXp p p p p -.dX. n.K.p p p p p M $ . X o O + @ + . # # S p p p p p v.` <.(.-.p p p p p / +X. & + @ + . # # = ",
". % * o X & % @ 6 i p p p p p p N.; F.d p p p p p fX; % * o X & % O X * . l.p p p p p C.gX= N.p p p p p p R T & X & % O X * O ; ",
"o o o o o o o * K hXp p p p p p h.X 0 p p p p p d jX. o o o o o o o o o kX1Xd p p p p p l.# lXp p p p p p zXm * o o o o o o & ; ",
"  . X o & % @ + . xXp p p p p p v.S.cXp p p p p P.n.X . X o & % @ + O # * vXK.p p p p p `.L.P.p p p p p p J.# * & % @ + O # o = ",
"@ + * o X O + O * <Xp p p p p p d bXhXp p p p p d.m . + & o X O + kX% * * m  .p p p p p l ^ f p p p p p p U.8 # X O + . % * O ; ",
"4.* o o * # * # . %Xd p p p p p c ;X@.p p p p p ... # * # o * # * # * o o O u.p p p p p y.~ %.p p p p p I s O o o # * # * o * = ",
"+ O # o & % . % . Q P.p p p p p p y.sXp p p p -.nX= % O # o & % . % O # # ; dX%.p p p p ).y.p p p p p p 0XZ o o & % . % O # o = ",
"8 + & o % O $ . % $ mXp p p p p p p p p p p p 6.MXX . + & o X O $ . % * * NXBX>.p p p p p p p p p p p p b s.& # X O $ . + * . ; ",
"% & # o * X O X & & ~.p p p p p p p p p p p p eXi.. X & # o * X O X & # o O 9 eXp p p p p p p p p p p p |.@ # o * X O X & # o = ",
"% & # o * X & X & . $.-.p p p p p p p p p p p pX% & X & # o * X & X & o o & + 0.p p p p p p p p p p p _.tX8 # o * X & X & # * = ",
"8 + & o % O $ . % O BX>.p p p p p p p p p p p D.8 $ . + & o X O $ . % * * % ; VXp p p p p p p p p p p uX+.X & # X O $ . 7 * . ; ",
"$ O # o & % . % O o {.CXp p p p p p p p p p q.&.<.. + O X o & % . % O # # O * ZX( p p p p p p p p p p f.i.. X o & % . % O # o = ",
"# * o o o # * # * o X pXp p p p p p p p p p X.o.* * # * o o o # * # * o o * * T E p p p p p p p p p p 8.X * o o o # * # * o * = ",
"@ % * o X O + O % o @ t p p p p p p p p p p 7Xs.O + . + <.o X O + O % * * % . w zXp p p p p p p p p p D.; + & # X O + O % * O ; ",
"  . X o O + @ + O # O AX( p p p p p p p p p t.O % @ + . X o & % @ + O # # O + 8 ;Xp p p p p p p p p C.1X# . X * & % @ + . # o = ",
"* # o o o * # * # o & T X.p p p p p p p p c 9.. o # * # o o o o # * # o o # * O W c p p p p p p p p 6XL.& # o o o o # * # o & ; ",
". % * o X & % & X o * K 7Xp p p p p p p p ^.$X& & % O % * o X & % c.X o o X & o /.D p p p p p p p p 9XR.O % * o # & % O X o O ; ",
"  . X o O + @ + O # # @ SXp p p p p p p p DXi.O % @ $ . X o O + @ + . # # . + ; ` FXp p p p p p p p iX; $ @ X * & + @ + . # # = ",
"O X * o # & X & X o o & (.'.*.GXN N GX*.0XC + o * X & X * o # & X & X o o X & X % ;XA N GX*.GX*.GXN @X* & X * o # & X & X o O ; ",
"& # > o # * X * # o o # + Z {.Z i.i.Z {.Z m o # * X * 4.* o # * X * # o o # * X * R.i.i.Z {.Z {.i.i.HX# * X * o # * X * # o & ; ",
"  . X o O + @ + O # # . + 8 JX. & # @ % 8 X * * % @ $ . X o O + @ + . # # O + @ + O * # @ % 8 X O & X @ $ . X * & + @ + . # # = ",
". % * o X O + O X o * % O + & X o * % O % & # # & % O % * o X & + O % * o X O + O X o * % O % & # # & % O % * o X & + O % * O ; ",
"o o o o o o o o o o o o o o o o o o o o o o o o o o o o o o o o o o o o o o o o o o o o o o o o o o o o o o o o o o o o o o & ; ",
"].@ X o O + 8 $ . # # . $ 8 + O o X @ $ 8 % & & % 8 $ @ X o O + 8 $ . # # . $ 8 + O o X @ $ 8 + & * % 8 $ @ % * O + 8 $ . # # = "
};
