/* XPM */
static char *_3a884f28950419cb0d155ea33ef303692NabmcK8brY8plM[] = {
/* columns rows colors chars-per-pixel */
"64 64 217 2 ",
"   c #010004",
".  c #0E0205",
"X  c #01010B",
"o  c #0C030B",
"O  c #130306",
"+  c #14050C",
"@  c #1B050B",
"#  c #1A060A",
"$  c #030313",
"%  c #0A0413",
"&  c #050915",
"*  c #0C0915",
"=  c #04051A",
"-  c #0A061B",
";  c #060A1C",
":  c #0A0B1C",
">  c #130613",
",  c #1B0612",
"<  c #150A14",
"1  c #1B0814",
"2  c #140A1B",
"3  c #1C0C1C",
"4  c #07101C",
"5  c #0C121D",
"6  c #270607",
"7  c #23060C",
"8  c #2A070A",
"9  c #23090C",
"0  c #2A080C",
"q  c #31070B",
"w  c #340A0D",
"e  c #3A0A0D",
"r  c #240611",
"t  c #230B15",
"y  c #2D0A14",
"u  c #240D1C",
"i  c #2C0D19",
"p  c #350C14",
"a  c #3B0C13",
"s  c #340E1C",
"d  c #2E121D",
"f  c #3C1216",
"g  c #35111B",
"h  c #3D121B",
"j  c #040622",
"k  c #040D25",
"l  c #090D23",
"z  c #050E28",
"x  c #080F29",
"c  c #140E23",
"v  c #041027",
"b  c #0C1325",
"n  c #0B1826",
"m  c #041228",
"M  c #05132A",
"N  c #0A122A",
"B  c #0B142B",
"V  c #07182E",
"C  c #09192E",
"Z  c #121324",
"A  c #1C1022",
"S  c #12152B",
"D  c #1B1729",
"F  c #131C2C",
"G  c #1C1C2A",
"H  c #071633",
"J  c #0A1632",
"K  c #071930",
"L  c #0A1C32",
"P  c #0A143C",
"I  c #0C1C3A",
"U  c #121C34",
"Y  c #1D1C33",
"T  c #121D3B",
"R  c #260E22",
"E  c #231325",
"W  c #2D1120",
"Q  c #26192B",
"!  c #341523",
"~  c #3B1321",
"^  c #3A1928",
"/  c #241A31",
"(  c #391F31",
")  c #10212F",
"_  c #0C2235",
"`  c #0E253A",
"'  c #0F293B",
"]  c #142333",
"[  c #1B2437",
"{  c #12233B",
"}  c #122B3D",
"|  c #1A2B3C",
" . c #13303F",
".. c #39202D",
"X. c #2C2231",
"o. c #27273A",
"O. c #39253A",
"+. c #392B3D",
"@. c #24323E",
"#. c #430E0E",
"$. c #450F16",
"%. c #431114",
"&. c #4C1213",
"*. c #44131B",
"=. c #4F171D",
"-. c #521313",
";. c #571519",
":. c #5B191C",
">. c #661817",
",. c #611A1C",
"<. c #6A1A1B",
"1. c #471622",
"2. c #4D1620",
"3. c #4A1C2C",
"4. c #501620",
"5. c #561E26",
"6. c #5B1B23",
"7. c #482735",
"8. c #6E2229",
"9. c #792427",
"0. c #6F2A34",
"q. c #0E1E43",
"w. c #121C45",
"e. c #141E4A",
"r. c #0E2441",
"t. c #0F2940",
"y. c #142442",
"u. c #132C42",
"i. c #192E42",
"p. c #13264B",
"a. c #152B4A",
"s. c #1A2D4D",
"d. c #153244",
"f. c #1A3344",
"g. c #173649",
"h. c #193749",
"j. c #17394B",
"k. c #1C3B4C",
"l. c #152D53",
"z. c #1A2E52",
"x. c #163255",
"c. c #1C3254",
"v. c #1C3C51",
"b. c #15335C",
"n. c #1C345A",
"m. c #282845",
"M. c #2A3544",
"N. c #233549",
"B. c #233E4E",
"V. c #2B3B4B",
"C. c #373949",
"Z. c #252F51",
"A. c #233155",
"S. c #283255",
"D. c #243A58",
"F. c #223C5E",
"G. c #353552",
"H. c #1A3866",
"J. c #1C3B6B",
"K. c #213761",
"L. c #243B64",
"P. c #21376A",
"I. c #233D6A",
"U. c #303F65",
"Y. c #243B71",
"T. c #453C4C",
"R. c #543E4D",
"E. c #633C49",
"W. c #773E49",
"Q. c #1F4355",
"!. c #28414F",
"~. c #234151",
"^. c #2B4353",
"/. c #27485C",
"(. c #334555",
"). c #394353",
"_. c #3D4857",
"`. c #314758",
"'. c #3A4A5A",
"]. c #1E4070",
"[. c #25426B",
"{. c #2A456C",
"}. c #2A4975",
"|. c #2C477D",
" X c #264A7A",
".X c #334973",
"XX c #56404F",
"oX c #444555",
"OX c #464B59",
"+X c #564755",
"@X c #784F60",
"#X c #6D5463",
"$X c #8D2926",
"%X c #9B2C29",
"&X c #8E3036",
"*X c #9D3436",
"=X c #A6312C",
"-X c #924451",
";X c #AB4041",
":X c #B44B4E",
">X c #AA5663",
",X c #2A4E83",
"<X c #2F5788",
"1X c #34548B",
"2X c #335A8C",
"3X c #375D94",
"4X c #386294",
"5X c #3B6AA2",
"6X c #415280",
"7X c #486B9C",
"8X c #5776B3",
"9X c #5A88BB",
"0X c #5C8EC3",
"qX c #5D94C8",
"wX c #6CA2D6",
"eX c #8EA4DD",
"rX c #80B1DE",
/* pixels */
"v v v v v m m v v v z z v v k ; l E S ; $ X l v v v M v m m m m 4 v v v v v v v k v k k k k z z k z k k k z k z k k z k k k k z ",
"v v v k m m B / S v l m m m m & + ^ A l o X & N v v v m m m m m v v v v v v v v k v v k k v k k z k m k k k k k k z k k z k k k ",
"v v v v m m B ..S m N m m z m z & o % % o o v v v M N v m m m m V v v M v v v v v k v v v k z z z k z z z k k z k k k k k j k z ",
"4 v v v v m k o : m m m v m m N & < o o o X v v M v v M m m n m v v M v v v v v v v v v v m v m m z m k k z k k k k k k k z z z ",
"v v v v v v v * * N N x : l E u # < * : o $ l m v v M v M m m m v m m v v v v v v m k m v v v v z v v v k k k k k k k k k z k k ",
"v v v v v v v 2 s E S S : 3 5.%.@ # > : X X ; m v M M v m m m m m m m m v v v v v v m k v v v v v v v z z k k z k z k k k k z k ",
"v v v 4 v v v b :.9.^ A u 8 8 7 < , # * X X k z v v v M m m m m m M m m v v v v k m k v v v v v v v v k v v v k z k k k z z k k ",
"v v v v v n n v 1.9.$.$.-.e # > 2 y e . X ; M m V v v M m m m m v v m m v v v v m v m m v v v v v v v m v m v k z z z k j z z k ",
"v k ; v v v v N A $.h 8.<.e 6 6 , 8 e # X l M m m m m m m m m m M v v M v v v v m k m m v v v v v v v v v v v v z z v v v m v k ",
"v ; ; v n v v N Z , h 6.-.q 6 6 # # , 9 7 2 m M m m m m m m m M v M v v v m m v k m m k v v v v v m k v v v z v m z z k m k m m ",
"4 k b ; v v ; = - + y p 6 q q 8 7 # 2 @ 8 < k M m m m m m m M z v M M v m m m m m m v m 4 v m m m k v v v m k m m v v m v v k m ",
"N B U B B L J c 2 @ 8 7 6 q a 7 # 7 2 , w 2 M M m m z m m m M m m M v M m m m m m m m m m m m m m m v v m k m v z v v v v z m k ",
"; ; ; ; ; l S 3 , r 7 @ , e #.&.#.0 < # @ B V M m M M m m m M z m m M m m m m m v m M v V v m m m k v v v v m v k v m v v k m v ",
"; X X     $ l c 2 @ 7 3 W 8.-.-.-.e f @ < N V M M M M M M m M M m m z M m m m m m m v v v v m m m z v m v v k m m m k v m v k m ",
"= X   X   $ j S D r r 2 R 4.e e w #.%.0 t : ; M M M M M M M m M M m m m m m m m m v M M v v M m m m m v v v m k m k k m m k m v ",
"J $ $ X $ $ j j c , @ 2 2 + @ O # 8 q 8 @ o = M M M M M M M m M M M z M m M m m v M v v M M M m m m m k z v v m v m m m k m v v ",
"z $ $ $ $ $ j z j A , > o O 8 . O , 8 7 + & v m v M V V M M M M z M M z z M z M m m m m m m m m m m v v v v m k m m m v m v v v ",
"$ X $ $ X $ = j j - c > o o 6 8 9 3 t 8 < m K C V M v M M M v V M M M M M M M z m z M m M m m m m m m v v v k m m k k m k m v z ",
"X X $ X X X $ j j j - * % o 8 -.&.u > 8 Z V B V M v M M M M M M K M K M M M M M m m m m m m m m m m m m m v v z v k m m m k v v ",
"X X X X l $ $ = = j $ = o o 8 >.<.r O # Z V V V V V V n V M V M M M M M M M M M M M m m m m m z m v m m m m v m v m v k v m v v ",
"X X X $ $ X X $ - 2 = $ o o @ &.:.9 O 7 S V V V V V V V V K K m M M M M M K M M M M z M M m M M m m m m m m m m m v v v v k m v ",
"X X X X X   X X % 2 c $   X . 8 w p w f D L L V V V V V V m V V K M M K M M M M M M M M M M z m m m M z m m m m m m v v v m z v ",
"$ $ X X X X   X $ % > * X X   o 0 e #.>.5.O.L L V L C V V V K K V V K M M K M K M M M M M M m m m m z M m m m m m m M v m m m m ",
"$ $ $ X   X X X X $ % @ o X X o y w e #.,.7.U L C L _ L K V K K V V V K M K M M M M K M M M M m m m M m z m m M m M M v m m v m ",
"$ $ $ $ X X X X X $ $ o + X X % > , e e y ) ] ) _ L L L L L L H L K K K M V M M M M V M M M M M M m M M M x x m m m z m m m m M ",
"$ X X $ $ $ X X X $ $ $ * o o < : < p p Z ] _ _ _ L _ _ _ L ` r.r.I I K K K V K V M M V M V V V M M H M M M M m m m m M m m m m ",
"X = ; X $ $ X X X X X $ X > o * c % p i ) } ' _ _ _ _ _ L ` w.b.].b.r.I L L V V V V V V V M M v M M M M M M V m m M m m m m m m ",
"X N B X X $ ; ; $ = $ $ X % $ % - % p Q | } ' ' ' _ _ _ ` r.J.8XwX5XH.` _ L K K V V V V V V v ; m V M M M K M m M M M z m m m m ",
"X = $ X X $ L T L L I B l b = X - c g o.f.} } } ' ' ' ' ' a.6XeXeXrX4Xb.r._ L K V C V V V V N k M V V M m M M m M M M M M M M M ",
"X X X   X $ N q.I I J J I J N l z 2 1.@.f.d. . .} } ' ' t.t.F.7X8XqX0X4Xn.` _ L L C _ V V V J x N I I N V V V V M K M M M M M M ",
"X X X X X $ $ H I J k z J I J I N 2 =.7.f.f. . . . .t.' t.u.H.}.P.[.]. Xx.` _ _ _ _ _ C L C V N N T I J J M V M K V M M M M M H ",
"X X X X X $ $ $ l J l ; k N V I I S *.5.+.] | d.d. .d.d.d.y.L.3XY.e.H.p.t.' _ _ _ _ _ _ _ _ L B B U b ; J V V V V V V K K M M m ",
"X X X X X X $ $ $ ; ; ; ; l l B L L Z f 1.< [ f.h.d.d.d.d.a.1X1Xq.e.Y.s.y.' ` ` _ _ _ _ _ _ _ V : b X X l V V V V V V V m N V M ",
"$ X X X X X X $ $ $ $ = = b B Y [ ) 5 O # < E X.R.C.d.f.d.g.<X|.e.e.A.w.u.' ' ' ' ' ` _ _ _ _ L ; = X X b C C C K V V V V V V N ",
"& $ X X X $ X $ $ $ - $ X $ $ & & * o o < + < < ..V.g.g.x.v.2X,X3X1Xw.w.y.t.} t.' ' ' ' _ ` C B $ X $ : V L _ L V L V V V V V N ",
"X X = $ X $ $ $ $ % 3 1 > > 2 $ X X * @.) 5 5 F ) N.k.j.j.v.}..X|.A.A.P.g.d.d.u. .' ' ' ' ' n & : : ; n L _ C C K V V L L V J N ",
"X X X X X $ X $ $ > i R i i u 3 % X : ^.^.!.!.!.V.B.k.k.k.~.[.g.p.w.P l.{.v.u.d. . .d. .} C 5 : C ] n V I L L L ) _ C V V B L C ",
"X X X X X X X X $ 1 g i > g h g d > : V.`.`.^.^.^.~.~.~.k.k.k.f.N I I q./.v.g.d.d.f.d. .n ; Q Z n V n B L { _ _ L C _ _ L C n n ",
"X X X X X X X X $ y f u X # p *.*.g r +.(.(.(.`.^.^.!.).^.Q.Q.| k { y.P u.j.j.j.j.d.} n : - ; j B U { C J } _ { _ ` ) n 4 &     ",
"$ $ $ X X X X $ $ u *.y X X o p =.-.:.5.XXoX'.(.(.`.).#XoX~.~.] z f.g.m y.Q.j.g.f.] n * n n b ; : l N ] T y.} _ n 4 X           ",
"j l - = X X X $ % s *.1 X X X > p <.%X;X&XE.OXoX'.'.).O.).^.B.: Z B.i.k } h.f.f.F 4 B Z b F b = = ; N } V 5 : o                 ",
"$ $ $ - : - = = > s h # X X X X o -.=X:X%X9.W.+XOXOXM.l (.`.N.: ] B.| : i.Q.k.C * b b )  .h.L ; = = & & X                       ",
"I.p.B j $ $ = = - R W 3 $ X X X X &.%X<.>.9.=X-X@X+X/ c M.(.M.b N./.v.: | k.n 5 ] Z ] k.~.d.b = X X                             ",
"c.I.{.[.z.P z ; $ % > u A 2 = $ $ &.$Xf #.>.=X;X>XE.E / oX'.V.b ^./.~.b 5 4 F | n n | ) 5 &                                     ",
"$ $ x T A.I.[.F.y.x - > r u 1 % & y 6.i 6.=.:.%X*XE.^ T.OX_.M.: N.^.V.F X 5 b : X & o                         X                 ",
"$ $ $ $ = k J p.P.U.{.S.Y R W r % , h ! ^ 3.1.;.0.3.( R.oXoXG 5 [ f.n & X X X   X                     X X                       ",
"$ = $ X X $ $ $ = x w.S.U.K.Z.m.Y E i d i ~ 6.2.^ W ^ T.oXC.: & l N & X X   X                     X                             ",
"$ $ $ $ X X $ $ $ $ $ % - l U y.c.A.Z.m.[ / 3.1.3.s 3 / D Z b - - l ; X X X X X             X X X   X                           ",
"M l = $ X X X $ X $ $ % % $ $ $ $ l / / s.A.S.G.G.m.S l ; $ = - - - : $ X X X X               X                                 ",
"K.n.g.y.{ B l $ $ X X X % $ $ $ X X , , - = l J w.Z.F.L.F.D.z.y.I z k $ X X X X X       X   X X X   X                           ",
"| U T s.c.c.c.s.{ J l = $ $ X $ $ $ % X $ $ $ $ $ $ = : l L T s.s.B B : $ X X X       X X                       X X & o         ",
"$ X X - S U L ] y.z.z.z.p.U B k ; $ $ X X X X X X X $ X X X X X - x B { L ; X X X     X   X X   X               n r.a.I &       ",
"  X X * G @.@.F = = j N U y.s.c.z.a.U B : = $ X X X X X X X X X = B B : F y.J & X     X X   X                 & x. X2X].B       ",
"        X * F : = $ $ X X $ $ ; N J y.s.s.s.i.T J l & X X X   X X l l = X & S U b &     X                     4 ].4X9X<Xx.&     ",
"          X & & X X X $ X $ X $ $ $ $ $ ; l J { a.g.z.s.y.U F l l l m = X X X & B n : X X                     & b. X7X4XH.4     ",
"l : & X X X   X X X X X X X $ X X X X X X X X X X = l B U y.s.z.a.J N ; X X     X X & b & &                   o d.].<X Xa.v o   ",
"U T T I U B N ; $ $ X X $ X $ X X X X X X X X X X X X X X X $ $ = : l B V $ X           & : & & X             o K r.p.` z k $   ",
"X $ = : N U L J J V N k l k ; $ $ X $ X X X X X X X   X X X   X X = k k l N l & X           & & 4 *             $ v P H P H ;   ",
"X       X X X $ = ; ; N B B J V B z l - = $ X X X X   X X   X     = : ; X X & l v : &           o & & & &         ; L I I L 4   ",
"X     X   X   X   X   X $ $ $ = k k x V B B N l k ; = $ X X X X X $ l ; X X   X X ; b ; & X                       = K I K J v X ",
"X X       X X   X     X X X X X X X X X X = : k l J B B N k ; = = - ; ;   X   X     o & 4 v & o                   X k I I P m X ",
"X X   X     X     X X X X   X X X X   X X X X   X X $ = ; l B B B x k = &   X   X           & 4 & X               X = J H H M $ ",
"X X X X X X   X X X X   X   X X X X X X X   X X X X X   X X X X X ; & = N n & $ X               X & & &             $ H H I K = ",
"B N v l ; ; $ $ $ X X X X X X X X X X X X X X X   X   X   X X X X X = = X : V N ; &                   X X           X z H J x = "
};
