/* XPM */
static char *result[] = {
/* columns rows colors chars-per-pixel */
"64 64 247 2 ",
"   c #010302",
".  c #080603",
"X  c #050A05",
"o  c #0A0C05",
"O  c #020609",
"+  c #050C0A",
"@  c #0A0D0A",
"#  c #160F08",
"$  c #071107",
"%  c #0C1206",
"&  c #06120C",
"*  c #0B130C",
"=  c #0D190D",
"-  c #11150B",
";  c #171909",
":  c #121B0D",
">  c #040E12",
",  c #061412",
"<  c #0B1513",
"1  c #071816",
"2  c #0C1B13",
"3  c #061319",
"4  c #0A161A",
"5  c #0A1C1C",
"6  c #111512",
"7  c #131C13",
"8  c #191E17",
"9  c #131D1A",
"0  c #16230E",
"q  c #1D210B",
"w  c #0D2013",
"e  c #0E201D",
"r  c #142113",
"t  c #1B2314",
"y  c #1A2A17",
"u  c #13231B",
"i  c #1B241B",
"p  c #1C291D",
"a  c #1F3117",
"s  c #24270D",
"d  c #222A14",
"f  c #282B17",
"g  c #232C1C",
"h  c #2B351A",
"j  c #383917",
"k  c #0B1E22",
"l  c #0B1E2A",
"z  c #101D22",
"x  c #0D2224",
"c  c #0D252B",
"v  c #0F2829",
"b  c #122523",
"n  c #182526",
"m  c #152924",
"M  c #1C2B23",
"N  c #132B2C",
"B  c #1B2C2A",
"V  c #1F3327",
"C  c #1C322C",
"Z  c #0F2731",
"A  c #122C32",
"S  c #172E39",
"D  c #153133",
"F  c #1C3334",
"G  c #16343C",
"H  c #1A363A",
"J  c #1B393D",
"K  c #232D24",
"L  c #272C24",
"P  c #232E29",
"I  c #243225",
"U  c #24332B",
"Y  c #2A342B",
"T  c #29392A",
"R  c #383A2D",
"E  c #222E35",
"W  c #243632",
"Q  c #243A34",
"!  c #2C3D33",
"~  c #293837",
"^  c #233C3D",
"/  c #323C35",
"(  c #34411B",
")  c #394628",
"_  c #2C423A",
"`  c #354435",
"'  c #38463B",
"]  c #3D503C",
"[  c #48481C",
"{  c #4D512D",
"}  c #495437",
"|  c #665E2E",
" . c #5B622C",
".. c #787237",
"X. c #183546",
"o. c #1B3C43",
"O. c #1B3D4B",
"+. c #1C3D53",
"@. c #223E42",
"#. c #2A3F43",
"$. c #1E4146",
"%. c #1E424A",
"&. c #1E4257",
"*. c #244345",
"=. c #2D4445",
"-. c #23444B",
";. c #2A454A",
":. c #2A484D",
">. c #3B4D44",
",. c #344A48",
"<. c #3D5348",
"1. c #224653",
"2. c #254A54",
"3. c #2A4C53",
"4. c #244D5C",
"5. c #2A4E59",
"6. c #334E52",
"7. c #2B545B",
"8. c #2C545D",
"9. c #335255",
"0. c #3B5657",
"q. c #34545B",
"w. c #39555B",
"e. c #3B5A5D",
"r. c #234B65",
"t. c #2B5466",
"y. c #2D5B6A",
"u. c #335A67",
"i. c #335C64",
"p. c #3B5D63",
"a. c #2D5B75",
"s. c #396468",
"d. c #2D6071",
"f. c #366878",
"g. c #434B42",
"h. c #455649",
"j. c #535949",
"k. c #465B57",
"l. c #4A5B53",
"z. c #535C53",
"x. c #596745",
"c. c #4D6459",
"v. c #566859",
"b. c #5E735F",
"n. c #6D704B",
"m. c #4A5E61",
"M. c #476668",
"N. c #566C67",
"B. c #57766B",
"V. c #4A6A72",
"C. c #5A6F70",
"Z. c #49737B",
"A. c #54757D",
"S. c #5A7778",
"D. c #6D7365",
"F. c #647568",
"G. c #667C75",
"H. c #867B4F",
"J. c #6D817A",
"K. c #74837C",
"L. c #92853A",
"P. c #978F4A",
"I. c #AC9A56",
"U. c #898771",
"Y. c #A7A568",
"T. c #C9BA6F",
"R. c #2D5F80",
"E. c #336888",
"W. c #397389",
"Q. c #336C95",
"!. c #3D7A98",
"~. c #3165A2",
"^. c #3C77AB",
"/. c #447888",
"(. c #597D85",
"). c #427896",
"_. c #637D81",
"`. c #467BA9",
"'. c #59868C",
"]. c #528A91",
"[. c #668787",
"{. c #758C89",
"}. c #74908E",
"|. c #688E94",
" X c #6C9399",
".X c #779696",
"XX c #4789A8",
"oX c #5590A7",
"OX c #4888B7",
"+X c #5A98B7",
"@X c #6797A7",
"#X c #6B97B2",
"$X c #6DA9B4",
"%X c #4C9AC5",
"&X c #4B94D0",
"*X c #53A7D2",
"=X c #59B0D6",
"-X c #73AFCC",
";X c #67B6C4",
":X c #51A6E5",
">X c #76C5DD",
",X c #73CCEA",
"<X c #75CEED",
"1X c #8E9185",
"2X c #839A98",
"3X c #A79096",
"4X c #87A29C",
"5X c #9AA597",
"6X c #ACB58B",
"7X c #91ADAB",
"8X c #A5B6AE",
"9X c #A9BBB6",
"0X c #B4BAB1",
"qX c #C5BC8B",
"wX c #A9C2B9",
"eX c #B6C5B9",
"rX c #CCCB84",
"tX c #EAE28D",
"yX c #C3C0AC",
"uX c #EBEDAC",
"iX c #88B7CD",
"pX c #91CBCF",
"aX c #99C4D5",
"sX c #B8CBC8",
"dX c #BBD3CA",
"fX c #AECED3",
"gX c #ADD7E4",
"hX c #B5DDEA",
"jX c #B1E0E5",
"kX c #C1D5CD",
"lX c #C7D8D6",
"zX c #CBE3DA",
"xX c #D7E3DE",
"cX c #C5DFE8",
"vX c #D9E8E6",
"bX c #D4EEED",
"nX c #C7EBF4",
"mX c #D8F4F8",
"MX c #E3EDEA",
"NX c #E6F1ED",
"BX c #E7EFF1",
"VX c #E4F7F7",
"CX c #ECF4F3",
"ZX c #ECFBFC",
"AX c #F2F8F6",
"SX c #F4FDFD",
"DX c #FDFFFF",
/* pixels */
"&.&.%.%.%.-.%.-.%.-.-.*.%.$.$.$.$.G G G D D v v v x x e 5 5 5 5 c O.r.r.r.Z l l x c c c k k k 5 5 5 5 5 e 1 e 1 1 1 , , & & & & ",
"&.&.O.%.%.%.%.%.%.%.$.$.$.$.$.J J G G D D A A v v v x x x e k x Z X.a.E.+.X.l l c c c c c k k 5 5 k 5 5 5 5 5 1 1 1 , , , & , , ",
"&.O.O.$.$.o.H *.$.$.$.$.o.$.J J J J G G D A A v x v x x 5 5 5 x Z R.!.$X+XX.c c c Z Z c c k k k 5 k k 5 5 5 5 4 1 1 1 , 1 & , & ",
"O.O.J O.O.Q ) v.%.$.$.$.o.o.$.o.J J J _ x A N v v x v x x x x c k 4.#XaX#XX.c Z Z l k c c k x k x e k 5 5 5 5 1 1 1 1 , , & , & ",
"X.X.J o.o.C ) h.*.o.o.*.o.J J J J H v.n.2 N N N v v x v x x x x 4   E p.X.Z l l >   > Z c x k x k 5 4 & 4 e n 4 5 5 1 , & & & & ",
"X.G J O.o.x P ^ F H J *.o.D D D F F { g 5 D D N v v v v v x x 4 l         O X .       5 Z c k k k k >   O + 3 + + + +   X X , & ",
"G G A N s.p.W 5 x k x D H e e v b < 9 n 1 D D D D x e e e 5 e , X         . 8 @       + Z v x k x ,     + + X .             X , ",
"D A e & = 2 @ X X     & x   X $     9 w.e.J D A w & X   + & + X         . O # # X     O Z c x x 1 O     2 : @ +               & ",
"3 < . X X         X   - <           . X B q.9.4 . X     X X           . X   % - . X . + Z c x x 4       2 7 : < O             O ",
"  X * * o . X o X     .                   > E @ X X X . . . .   X X X + X     . X   X @ , c c x 1       7 i 7 @               O ",
"# - o X X X .                                     X   X X     X + *   . X X X X .   X   X l v x &       X 7 * +                 ",
"- #         .         X X   X X X                 X X - - - P =.N 4       X . o .   X   O c v e @       + + @ @               o ",
"# X   . # # # o       . X   X .                   X . q g =.Z./.n O       X = ; ; X X     v N 4 +       . X                     ",
"f % ; s j j j s 8     X   X + X X                   . q ] Z.u.F @         o s j s % X   + A N , O         O + X X @   X   X     ",
"[ s s | I.T.P.j s       X X < @ X           ; X % u i u _ p.2 < + O         ; ( d % X X l S A < 6       X 8 u * 6 * @ < 2 t *   ",
"L.j | rXtXtXuX..s .   . .     +             6 g i 9 P I B B < 2 +     + X   h Y.n.h I I 4 A A 5 i       . * * @ 6 * < - - 7 +   ",
"P.j H.uXuXuXuXP.s . % q %     @             6 * @ @ 6 i F < + * X X   X X % h .. .h t 9 i k G b I               X X X % 6 . X   ",
"| s j I.uXtXL.j q % . s %   X @ . o .         X % : @ 2 9 < o             $ = j d : K P 6 x J N M X                   @ * X +   ",
"h s j [ ..H.[ h q % o t X X @ 6 ; q #     o : % X X X o . o X             X % - - : t <.B 4 o.A 2                       X + + X ",
"j s d d f j f L s 0 - 0 X X . @ ; s #     - ;             X X                   X X X . @ b $.A X                       @   @ 8 ",
"- @ - @ # # . X . o . X . @ @ + @ % % .   . .       @ X @ o                 @ X   X       4 %.N                         O @ ' # ",
"8 g i 8 d K .             . O   @ < * @ . @ X       X . X X               X - 7 % X       Z 1.N                           * 6 O ",
"X .     X             O X   . @   @ @ @ * 6 3         X . @                 X * % X .   O %.4.D                         . O O O ",
"6 6 8 8 @ X     . @ @ E 6 6 . @ g 6 @ @ @ @ 5     X * % X o       O         X o o o     + &.8.N                       6 8 @ O < ",
"@ @ @ @ o X X X     X B @ 6   X 8 # @ @ * - 6     X 8 t - *     X X       X X % - *   X + X.1.,                     . 8 n L K h.",
". .                                 O + @ % +     . : 6 * *     $ * X X     - 7 8 u     X * < , O                   6 9 * O K P ",
". @ + .     @     O @ . . @ 6             7 %     X X X X X   X $ +         X o X X   X X + O u +                 6 8 L O 8 L i ",
"* <         X   X .   X L @ @             6 : X   7 8 : 7 = X X = & o o   % 6 o : = X X . + X b <     O @         9 * > L Y L / ",
"X X @ X O + +   @ @ . @ 6           X   X . % % X r g i i 7 $ % t & % : $ % g i u t X $ - + X x e O * I >.6   O   1 < P Y + + < ",
"@ * n B 5 u 7 O @ @ . + @ 9 @       X X 6 6 s 0 % ; 0 - % o % a j 7 h h $ = r u : - % : s & O X X X p Y L >     O , 7 i U n 8 4 ",
"8 2 p.7XV.c u   - -   X @ 8 6   X X . . 6 7 j a : ; 0 = r : r ( { , f [ 0 = ; t d g : a [ + +   X X i * 8 *       7 I p j.L < 4 ",
"+ b A.iX(.S x     .   . + .   O X X . X : 2 | [ y d I K g : y { } & j  .a : g h L h 0 h  .M &   + + 2 T / 9     O 2 U P ` 9 > z ",
"* U Q 0._ i O                 X X X X X r a ..) r K i g y = T  .} & ) x.T r g g I T s ) n.h.B X & + u U 6 @ O O O @ ' 5 m m , b ",
"< , X + X                         X X X r r ; $ X * X = i = 0 } ` m h. .a : y : y r : ) J.l.B X & & w ] / P O     > C 2 N m , 3 ",
"O + X     O                     X X X X = * X X $ & $ & & & $ % u V I t X & & m u & & & s y 2 $ & & u ' ' W X O O > N 4 k k > 3 ",
"X O O                 X     X X X $ % X * g V V ` ' >.h.h.<.] m u 2 = = U <.<.{.}.<.>.V % % $ & 1 & 2 e + X O O O O 3 < > > 3 3 ",
"X O                   X p 7 X & = = & X r g = $ & = = 2 1 w = u v C _ V V S.4X2X{.{.J.C r p 1 * m 4 , , X + O + + O > > > > 3 3 ",
"                        + $ X X % 2 & & & p V >.<.! V V ) ] ) w m w = w U B.{.J.J.J.c.y 2 < & * Q m & V ~ ! ~ n 9 9 5 > > 3 4 l ",
"          @ @ *           X X X X & % & a ] h.h.<.c.h.<.b.J.] _ $.C ) x.c.F.h.b.J.B.v.<.! V < 3 F b , Q U U U U B b 9 3 z 4 c (.",
"          + + * X         X X X X X X X & w w = = 0 w 0 y 0 w u 7.Q _ _ y V w w p M V p b m ,.m.F D x U ` l.<./ l.P 9 B 9 B k.9X",
"                          X X X $ = X $ = * = = + 2 w = w w w 1 4.v & & & $ $ & & * + X u Y l.wXW $.H 0.! >.l.l.z.,.B ` ` W S V.",
"            X         X * ! ! ` b.h.= z.b.c.N./ p x.F.F.F.F.v.<.d.<.<.<.2 $ & V I L i $ 9 R n.3XW N N <.U 7 ! ,.>.P R 6Xj.* > 3 ",
"          X         X X $ 2 < r b.z.* h.z.] x.Y Y G.K.5X5X5XD.Q y.F V V 2 $ $ = & & & X i Y U.3XB b v V i 7 Y ` ! P j.rX} n z 1.",
"O O               X   X i r u U / i o i P I I < y <.<.k.h.c.<._ f._ Q T 2 & $ , $ & & % L i n.yX! x N m u P h.>.l.>.{ } 8 > X.,X",
"+ k k + X   X X X X X X / h.h.c.z.I 7 z.N.v.b.P Y F.N.F.G.K.G.S.W.c.b.J.M & & = & & & * R R z.yX>.N o.,.! n M u / ` 4 B #.> S =X",
"  4 X.+.k X   X X $ $ X W ' ` ' ! < p _ ] h.l.L M <.] g.c.v.l.M./.c.c.N.m % , = 7 r & < / >.g.U.>.S G _ F u m 4 4 B E |.M.P E 1.",
"4 5 N r.t.N 1 2 w e e u n F F F F k u m N F F v x N F N m C F *.E.Q F C b e e b ' >.m b <.k.G.1Xk.2.O.X.X.5.6.G G -.-.[.M.i.V.3.",
"q.8.A.#X#X$X@X@X@XoXoX+XXXXXXXXXXXW.E.Q.Q.Q.Q.Q.r.G o.G A A N J d.v D x x b u C j.F.-.m 6.k.m.N.q.f.t.%.1.4.@.1.2.p.p.8.A.p.p.q.",
"1.:.|.(.u.u.t.t.u.XX`.`.&X-X`.~.`.+.n Z l c k R.R.v G J D D v $.y.e A 2 5 e 9 / 3X3X9.u l.m.z.z.0.W.8.$.%.$.o.o.-.q.w.-.p.9.s.M.",
"o.@. X1.l l c X.r.`.~.^.gXmX#X`.`.Z z 9 1 9 1 a.E.D s.V.B.J.B.V.y.e D 5 e u u P D.1X6.i B H E J 5./.d.%.%.$.o.$.o.9.p.@.M.0.B.B.",
"o.-.@XS Z Z A r.).OX^.OXcXnX-XaX|.X.c k 5 e 2 a.y.D 9.*.;.k.c.i.y.x H u u b b I | H.9.n n v N H &.].s.&.%.$.$.J o.6.w.*.M.e.B.|.",
"@.6.|.Z Z Z G a.#X+X`.iXgXaX+XhX/.X.S N b b x E.y.H O.G J *.^ 4.d.C o.b u m p R Y.qXN.C F H J J $.y.y.5.2.2.2.:.:.w.A._..X|..X}.",
":.V.(.Z S S @.a.-X+XiXhXaXcXaXhX/.+.+.B N N n Q.y.o.1.%.e.[.[.V.W.H %.F B B B ! D.D.m.@.@.-.-.5.y.f.W.f.s.s.s.s.q.Z.|.A.M.e.e.0.",
"#.Z./.A &.X.1.a.#X+XhXmXcXnXcXaXa.r.:.S F F F !.y._ i.V.A.S._.Z.W._ 2.C B L K Y g.z.6.E ^ Q @.*.s.f.].s.s.7.7.2.2.9.w.6.3.,.=.*.",
";.'.f.2.t.2.t.f./.#XnXZXVXmXgX`.t.1.J E =.6.6.+XZ.s.'.|. X|.}.'.'.0.s.Q E Y R R R g.l./ ' 6.0.M.J.|. XJ.J.J.d.s.7.3.p.3.*.6.6.@.",
"2.@X7XfXsXfXsXsXsXcXmXSXSXCXBXlX_.1.^ #.7XkXlXcXlXlXvXvXvXxXvXvXvXkXsXN.#.j.3XeX0XyXkX0X8X7XfXzXzXbXvXNXbXdX].s.q.9.q.3.-.-.:.7.",
"9.$XvXDXZXSXZXSXSXAXSXSXSXVXAXSX2X#.@.w.xXDXSXSXSXSXSXDXDXDXDXSXSXSXAX_.=.j.xXSXAXSXSXSXVXzXeXzXNXNXNXSXDXNX Xs.s.i.s.s.s.s.s.*.",
"i.-XBXVXnXnXmXnXnXmXSXSXZXmXmXZX.Xt.5.A.MXSXmXmXVXVXmXmXAXDXDXZXVXZXAXJ.>.j.xXSXMXMXxXNXSXMXkXzXvXdXeXbXSXAX.Xs.7.8.d.7.9.9.3.$.",
"XXiXCXSXVXVXCXZXZXZXSXDXSXVXZXAX[.u.y.(.BXDXCXZXSXZXAXSXSXDXDXSXZXSXCXJ.=.j.xXSXxXxXxXNXDXSXAXDXAXNXlXvXDXAXpX=X=X*X*X%X%X*X*X=X",
"XXaXSXDXSXvXCXDXvXDXDXDXDXDXDXCX(.5.1.S.BXDXDXAXBXDXSXCXDXDXDXDXDXDXAX}.w.m.xXSXSXDXDXDXDXDXDXDXDXSXDXSXDXDXgX=X=X:XOXOXOX&X:X*X",
"%XgXDXDXCX4XbXNXwXDXDXAXNXNXCXxXV.7.3.[.AXDXDXlXdXDXvXlXDXDXSXAXSXAXNX[.w.m.vXSXSXDXDXDXDXDXDXDXDXDXDXDXDXDXgX=X*X%X!.XX^.&X:X&X",
"<XpXdXlX9X'.iX.X}.lXlX4X{..X2X2X9.;.*._.xXMXvX9X7XhX8XeXCXNXsXeXsXkXdXC.0.k.lXCXAXAXSXSXDXSXDXDXDXDXDXDXDXSXjX,X<X,X>X<X<X<X<X<X",
"+XZ.V.C.V.e.s.M.M.A.S.M.p.q.=.^ o.o.J ;.p.k.k.6.w.M.p.M.S.S.V.N.N.N.M.9.i.9.C.G.}.7X7X8XfX9XsXdXdXkXdXdXdXdXpX>X,X,X,X<X,X,X<X<X",
"!.|.7X8X7X7X.X8X4X7X8X{.f.9.m p u i M n n n ^ X.@.;.*.;.6.6.6.:.6.6.=.2.f.'.$X9XwXwXwXeXeXdXkXzXzXzXkXdXdXdXwX>X;X;X;X;X;X;X;X>X"
};
