/* XPM */
static char *result[] = {
/* columns rows colors chars-per-pixel */
"64 64 255 2 ",
"   c #121F2A",
".  c #3D3636",
"X  c #4C341D",
"o  c #483729",
"O  c #543B26",
"+  c #4D3231",
"@  c #473937",
"#  c #433C35",
"$  c #673A2D",
"%  c #3E4134",
"&  c #50472C",
"*  c #4B4435",
"=  c #494738",
"-  c #4B443B",
";  c #544C3B",
":  c #584939",
">  c #575537",
",  c #5C543C",
"<  c #5B5B3D",
"1  c #684928",
"2  c #754828",
"3  c #795629",
"4  c #674A38",
"5  c #744F33",
"6  c #63533B",
"7  c #645C3D",
"8  c #68593A",
"9  c #5F613F",
"0  c #69633C",
"q  c #75673A",
"w  c #78723D",
"e  c #2F324E",
"r  c #342B52",
"t  c #3B3857",
"y  c #2D3A6B",
"u  c #373B64",
"i  c #443A46",
"p  c #463B59",
"a  c #683C4C",
"s  c #43366D",
"d  c #623B60",
"f  c #304152",
"g  c #3A455A",
"h  c #354567",
"j  c #364F71",
"k  c #494649",
"l  c #574B48",
"z  c #4C514C",
"x  c #5A5643",
"c  c #454856",
"v  c #594C54",
"b  c #585655",
"n  c #664B46",
"m  c #744748",
"M  c #645C43",
"N  c #685948",
"B  c #755B4A",
"V  c #6B4A59",
"C  c #685858",
"Z  c #745A58",
"A  c #5B644A",
"S  c #5B6959",
"D  c #646442",
"F  c #6C6343",
"G  c #6A6948",
"H  c #736543",
"J  c #746C4B",
"K  c #786948",
"L  c #6E724B",
"P  c #78774A",
"I  c #7D744D",
"U  c #696858",
"Y  c #786855",
"T  c #6C7455",
"R  c #7B7353",
"E  c #777558",
"W  c #494766",
"Q  c #544867",
"!  c #554877",
"~  c #525372",
"^  c #6A4C66",
"/  c #6D4F6F",
"(  c #685865",
")  c #745769",
"_  c #53666C",
"`  c #686863",
"'  c #796765",
"]  c #697468",
"[  c #787867",
"{  c #676875",
"}  c #7C6B78",
"|  c #687C78",
" . c #787B76",
".. c #865B30",
"X. c #86632D",
"o. c #916A2F",
"O. c #876835",
"+. c #946934",
"@. c #8A763B",
"#. c #967738",
"$. c #A0693E",
"%. c #823941",
"&. c #8D5A51",
"*. c #AC5651",
"=. c #926949",
"-. c #857749",
";. c #836856",
":. c #986558",
">. c #877A56",
",. c #837C5C",
"<. c #A96D4E",
"1. c #905566",
"2. c #836966",
"3. c #837E62",
"4. c #8F756E",
"5. c #867869",
"6. c #AB7070",
"7. c #C37454",
"8. c #78834D",
"9. c #7A856B",
"0. c #7D8377",
"q. c #99803E",
"w. c #89844A",
"e. c #968747",
"r. c #888554",
"t. c #8C835B",
"y. c #95865A",
"u. c #999450",
"i. c #9A9557",
"p. c #A58A47",
"a. c #A8934A",
"s. c #A59858",
"d. c #B09351",
"f. c #9EA15D",
"g. c #ABA459",
"h. c #B4A454",
"j. c #898567",
"k. c #968966",
"l. c #8D916A",
"z. c #999469",
"x. c #868977",
"c. c #9B8B77",
"v. c #8A9377",
"b. c #989677",
"n. c #A78A69",
"m. c #A69567",
"M. c #B5996B",
"N. c #A48C78",
"B. c #A89874",
"V. c #B49670",
"C. c #97A777",
"Z. c #ABA764",
"A. c #B8A868",
"S. c #BBB36A",
"D. c #A6A379",
"F. c #B8A978",
"G. c #B4B578",
"H. c #CF8F59",
"J. c #CE9E64",
"K. c #C6B66B",
"L. c #C2AB7B",
"P. c #C8B877",
"I. c #D2B375",
"U. c #E2B276",
"Y. c #B7C27C",
"T. c #D6C25F",
"R. c #D0C572",
"E. c #D5C678",
"W. c #E2D37C",
"Q. c #3A508A",
"!. c #4C5287",
"~. c #557190",
"^. c #6A758C",
"/. c #7570AB",
"(. c #8F7387",
"). c #B16F8D",
"_. c #B06CB0",
"`. c #C0639A",
"'. c #D170C4",
"]. c #6E8E90",
"[. c #718DA1",
"{. c #909288",
"}. c #998998",
"|. c #A88F8E",
" X c #8FA78B",
".X c #A9A884",
"XX c #B8AB85",
"oX c #BAB487",
"OX c #BAB097",
"+X c #958EA6",
"@X c #B195AC",
"#X c #94A9B1",
"$X c #B4A7B0",
"%X c #D69295",
"&X c #C3AD86",
"*X c #C8B785",
"=X c #D4BD86",
"-X c #CBB996",
";X c #D5BD93",
":X c #E3B88D",
">X c #D095AE",
",X c #CBB1B1",
"<X c #B9C69F",
"1X c #C9C88A",
"2X c #D7C487",
"3X c #D8D686",
"4X c #D8C896",
"5X c #DCD497",
"6X c #E4CB8B",
"7X c #E6DA87",
"8X c #E4CA95",
"9X c #E6D698",
"0X c #F1DE9C",
"qX c #ECE598",
"wX c #D6C9A4",
"eX c #D6D1AA",
"rX c #E6D9A3",
"tX c #E6D3B0",
"yX c #DBE3B8",
"uX c #EBE6A8",
"iX c #F5EBA9",
"pX c #F8F2AB",
"aX c #EBE5BA",
"sX c #F3EBBB",
"dX c #FAF5B3",
"fX c #FAF7B6",
"gX c #FDFCBC",
"hX c #9795D1",
"jX c #B98FC9",
"kX c #96B8C3",
"lX c #AFB7CA",
"zX c #D196D2",
"xX c #CCAECF",
"cX c #E2B0CD",
"vX c #D2AEE3",
"bX c #B2C9CB",
"nX c #B5DEEC",
"mX c #D3CFD9",
"MX c #DDD6D2",
"NX c #EBE9C8",
"BX c #F3EBC9",
"VX c #FDFCC3",
"CX c #F7F4C9",
"ZX c #FDFDCB",
"AX c #ECEBD9",
"SX c #FDFDD4",
"DX c #F9F7D8",
"FX c #E5D0E7",
"GX c #D3E6E8",
"HX c #E7EBEA",
"JX c #F6F4E6",
"KX c #FDFDE4",
"LX c #FEFEED",
"PX c #FEFFF3",
"IX c #FFFFFE",
/* pixels */
"IXIXIXIXIXIXIXIXIXIXIXIXIXIXIXIXIXIXIXIXIXIXIXKXrX4XoXB.>.-.=.q K q F 0 8 K >.I y.>.k.m.5XKXPXPXPXPXPXPXPXPXPXPXPXPXLXLXLXJXLXKX",
"IXIXIXIXIXIXIXIXIXIXIXIXIXIXIXIXIXIXIXIXIXIXIXDX9X2X*XM.>.K K K K q K H K >.>.>.t.>.t.s.*XDXIXPXIXPXPXPXPXPXPXJXPXLXLXLXLXLXLXLX",
"IXIXIXIXIXIXIXIXIXIXIXIXIXIXIXIXIXIXIXIXIXIXIXDX9X*XoXz.-.-.K -.>.-.K K -.>.y.>.>.,.t.i.P.DXPXPXPXPXPXPXPXPXPXPXPXLXPXPXLXLXLXKX",
"IXIXIXIXIXIXIXIXIXIXIXIXIXIXIXIXIXIXIXIXIXIXIXDX5X1XF.y.;.-.K I -.q B q N N I >.3.3.t.s.P.DXPXPXPXIXPXPXPXPXPXPXPXLXLXLXLXLXLXLX",
"IXIXIXIXIXIXIXIXIXIXIXIXIXIXIXIXIXIXIXIXIXIXIXDX5X*XXXk.R I q 8 8 8 7 H -.H G Y ,.E t.z.L.CXPXPXIXPXIXPXPXPXPXPXPXLXLXLXLXPXLXLX",
"IXIXIXIXIXIXIXIXIXIXIXIXIXIXIXIXIXIXIXIXIXIXIXDX5X*XG.y.I 0 0 H 0 8 8 I H K R ,.j.t.t.i.S.BXIXIXIXPXPXPXPXPXPXPXPXPXPXPXLXLXLXLX",
"IXIXIXIXIXIXIXIXIXIXIXIXIXIXIXIXIXIXIXIXIXIXIXAX1X*XG.z.K N q K q > > 0 , 6 J >.t.E t.z.S.BXIXPXIXIXPXPXPXIXPXJXPXPXPXLXPXLXLXLX",
"IXIXPXPXIXIXIXIXIXIXIXIXIXIXIXIXIXIXIXIXIXIXIXCX4X1XoXB.J M 7 K 7 8 6 D 7 x F >.,.r.j.m.S.NXIXPXPXPXPXIXPXPXPXPXPXPXPXLXPXLXLXLX",
"IXPXKXDXPXIXIXIXIXIXIXIXIXIXIXIXIXIXIXIXIXIXIXCX2XP.*XD.E J 7 6 > 6 7 > 7 F G 3.3.t.t.z.S.aXIXIXIXPXPXIXPXPXPXPXLXPXLXPXPXLXLXLX",
"IXIXSXDXLXIXIXIXIXIXIXIXIXIXIXIXIXIXIXIXIXIXIXBX3X1XP..Xl.r.H 7 6 6 8 > M J J 3.j.[ t.s.A.aXIXIXIXIXIXPXPXIXPXPXPXPXPXPXLXPXLXLX",
"IXIXSXgXSXKXLXIXIXIXIXIXIXIXIXIXIXIXIXIXIXIXIXBX2XP.G..Xk.z.R J 7 M 0 < J >.,.3.3.,.t.s.K.aXIXIXPXIXIXPXPXPXIXLXLXLXPXPXPXLXLXLX",
"IXPXCXdXZXZXKXIXIXIXIXIXIXIXIXIXIXIXIXIXIXIXIXBXE.S.A.D.z.k.r.>.I U H q K R -.R R -.>.i.A.aXIXIXIXIXIXIXPXPXDXaXtXsXCXPXLXPXPXLX",
"IXIXCXpXCXgXKXIXIXIXIXIXIXLXBXBXsXBXBXBXBXBXDXsXR.A.m.z.i.t.>.-.I U H H q 0 F 0 D H I e.A.aXIXIXPXIXIXPXIXCXrX2X=X4XrXKXPXPXLXLX",
"IXPXCXpXCXVXSXIXIXIXIXIXIXBX6XU.U.U.U.:X:XU.rXuXP.Z.g.z.z.y.y.r.>.J H K -.I K J J J J e.K.uXIXIXIXIXIXIXPXBX9X=XP.-X4XDXPXLXLXLX",
"IXPXVXiXgXVXKXIXIXIXIXIXIXBXJ.H.H.H.J.U.U.J.=X2XK.A.F.C.z.z.k.t.r.J J R y.>.;.R R R j.i.J.aXIXIXIXIXIXIXPXCX8X=X*X=X2XAXPXLXLXLX",
"LXDXdXiXgXVXKXIXIXIXIXIXIXAXP.H.6.V.V.V.V.L.E.K.K.K.A.D.z.l.l.t.t.R J -.k.>.E E E E j.m.S.uXPXIXIXIXPXIXIXDX6XI.*X=X4XCXPXPXPXLX",
"SXVXiXiXVXVXKXIXIXIXIXIXIXJXF.n.m.B.b.b.B.oXiX7XT.K.F.D.z.z.t.j.t.G J ;.n.4.,.E E [ j.z.A.5XJXIXIXIXIXIXIXDX9XI.=X2X2XBXPXPXLXNX",
"CXgXpXpXgXVXKXIXIXIXIXIXIXAXXXk.5.x.x.x.v.XXiXqXR.P.G.D.z.l.k.k.t.M F I y.y.,.R x.| ] x.k.S.rXPXIXIXIXIXIXDX0X2X*X2X=XBXPXPXLXeX",
"VXfXsXdXVXVXKXIXIXIXIXIXIXAXD.k.5.0.].(.0..XpX7XT.P.oXC.b.b.x.z.>.> F I y.>.>.5.{.| ] ] j.m.4XPXIXIXIXIXIXDX0X2XI.2X2XNXPXLXLXtX",
"dXfXpXdXVXZXLXIXIXIXIXIXPXNXV.l.0. .5. .0..XpXW.R.K.oXD..Xb.b.n.>.> D ;.>.>.5.j.{.| ] [ 3.y.*XLXIXIXIXIXIXKX0X6XE.2X2XNXPXPXPXKX",
"pXfXpXdXZXZXLXIXIXIXIXIXKXNXz.j. .x.0.0.0.oXqXW.I.R.*XXX.Xb.c.z.E x x J ,.,.,.4.{.| ` ] E y.P.LXIXIXIXIXIXJX0X6X2X2X2XNXLXPXLXLX",
"iXfXpXgXVXZXLXIXIXIXIXIXDXrXk.5.3.[ 9. .9. X3X3XE.P.1XoXD.B.B.k.E > M L >.[ ;.k..X| ` T E t.F.LXIXIXIXIXIXKXiX6X2X2X2XBXPXPXPXLX",
"iXdXpXfXVXZXKXIXIXIXIXIXSXeXy.j.j.0.C.v.9.C.1XY.R.R.1X-X.XB.B.k.[ = x J >.3.3.t.{.0.S ] E t.F.JXIXIXIXIXIXLXiX6XE.2X2XaXAXNXLXLX",
"iXdXpXdXgXgXSXKXLXLXLXLXSX5Xj.[ [ [ 0.9.9. X3X1XK.P.=X-X.XF.m.c.9.> x I j.[ 5.j.B.9.S ] U >.A.DXIXIXIXPXIXKXuX6X6X=X2XaXwX4XNXKX",
"dXfXdXiXL.F.9XCXZXZXSXSXSXeXk.[ [ ] [ [ ] C.qX3XK.K.*X5X:XL.B.x.E < > J k.[ t.[ B.9.S S ] >.s.iXSXSXSXSXSXZXiX6X=XI.2X4X-XL.*X-X",
"dXfXgXrX;.&.i.rXZXZXSXCXDXwXt.E [ [ [ ] ] v.G.Y.K.K.*X9X:XF.b.b.j.9 A L t.j.3.j.z.9._ T U P s.uXZXVXgXgXgXdX0X6X6X2X=X=XF.M.m.s.",
"fXfXdX4XY B -.5XVXsXMXAXNX<Xj.` U ` ` ` 9.l.oXY.K.K.*X8X8XL.B.b.l.9 L l.l.j.t.[ l.9.S A A T u.qXVXVXgXgXdXpX0X7X=XI.P.L.A.M.m.n.",
"gXfXrXXX;.m K rXCXGXHXHXHX.X[ ] 9.[ 9.0.l.<XuX3XK.L.*X9X8X=XXXA.m.0 8.C.l.i.t.t.k.j.L A x L y.0XgXgXgXgXdXpX0X6X2XI.P.*XL.M.s.n.",
"sXuX7XM.N n Y 4XyXGXbX#XeX].` S T ] [ 9.[ G.5X3XA.A.*X8X0X6X=XL.S.8.8.C.Y.z.r.y.z.l.G A A F e.9XVXgXgXgXpXpX0X6X=X=XP.=XL.M.B.n.",
"h.s.a.-.N U Y j.v.GXbX#XbX0.` S ` ` ` [ [ b.3XR.A.M.G.2X2XE.P.A.f.8.8.1X3Xi.I >.y.k.L x < 7 r.rXVXZXgXdXpXiX0X6X=X=XP.*XL.V.V.m.",
"h.a.p.-.l C ( S { bXGXGXmX^._ z b b U ` z S G.G.K.A.A.P.P.E.P.A.f.8.w.R.1Xz.P I r.r.L A x 7 w.5XVXVXVXdXpXiX0X6X:XI.*X*XL.M.B.m.",
"m.A.H.p.N ` ^.^.^.[.nXGXkX[.].].` U D ` z A 9.l.h.P.9XqXqXW.W.K.A.u.8.K.R.Z.r.P r.r.L D < < -.5XVXgXgXdXpXiX0X6X2X=X*X*X&XB.B.N.",
";.oXK.d.J { +XlX#X#XbXkXbXkXkXkX| U A U z S 8.l.A.E.qXiXqXW.E.R.S.f.w.T.T.f.8.P L 8.J 0 < < P 2XVXgXgXgXdXdX0X2X=X=X*X;X*XV.N.B.",
"E OXwXM.Z ( ( { { ` { { { { ~ ! v [ E E T S T r.B.W.qXqXW.3XW.W.R.g.u.W.T.f.w.8.L 8.P D 9 0 G A.fXVXgXgXgXgXiX6X=XI.*X;X-XF.m.N.",
"3.B.wX-X2.) / ^ C B Z B ( ^ d / ^ C C T L L 9.l.l.P.3X3XR.3XW.W.R.g.u.W.T.u.P 8.L P L G D 7 0 -.uXVXgXgXgXfXiX8X;X=X&X&XoXV.n.B.",
"B.j.XX;X(.4.%.6.-X&X;X4X,X,X>X_._.) G E R T T T T I r.r.r.R.7XW.R.g.u.rXK.u.w.-.0 L w 0 > < 0 K rXSXZXZXZXCXfX8X2X=X&XL.XXB.n.c.",
"wX.Xk.V.4.).1.%X8X:X:X;X%XNXcX`._.) N Y P L G D L 0 D G 8.f.W.R.R.S.f.uXE.s.8.r.L L P 0 0 8 0 K D.aXLXDXKXLXCX0X8X;X:X&X-XXX6.c.",
"F.4XA.<.1.`.`.%XtX7.H.7.%XDXcX'._.) N T P L L A L D 0 G 8.u.g.Z.Z.S.f.K.T.s.u.8.8.8.P P P L K I r.OXLXKXLXKXCXrX8X;X&X&XwXXXc.c.",
"c.m.B.=.1.>X>X%XJ.7.7.7.7.cXcXzX_.) F J 0 A < 9 G G G L 8.u.f.g.Z.Y.u.g.h.S.f.f.i.u.w.w.-.L J J P XXKXNXwXNXCXrX8X;X&X-X,XXXN.c.",
".XY R N 1.%X).7.*.7.7.<.*.*.).).).( x G D 9 A < 9 A G 0 8.8.u.u.Z.g.u.g.h.h.g.g.g.s.s.Z.s.J L J q *XKXBX*XuXVX9X8X:X-X-XtXOXN.c.",
"k.l x l Z &.a m 5 5 $ 2 $ a d d ^ Z M J Y J I J < < 9 9 L 8.u.g.g.h.u.h.h.h.a.h.u.u.u.g.z.r.P P D.CXDXSX*XaXCX9X8X;X-X-XcX,X|.c.",
",.* @ k l @ @ + : o O + + @ @ # k x M G F H H H < < 9 9 0 8.@.8.u.u.u.a.a.h.a.g.e.q.a.h.oX<XwX.Xr.XXDXLXXX5XsX4X;X8X&X&XwX,X|.}.",
"Y # # @ - x n l - - - = = % = z ; ; D G H K P J > > < > 9 w w w w w.w.@.a.h.g.g.e.q.a.7XDXAXAXNXI y.BXeXk.>.M.<.:.>.&.|.wX,X|.}.",
"6 # # - l : ; = * * * * * . % . = * > M N M F 0 = = > > > 0 0 w w w.w.e.a.a.q.q.q.a.S.3XyX<XXXF.-.K >.K 4 5 4 6 $ l - 4.@X@X}.}.",
"x # # - ; x * - & * * # . * * # * * , M H q ;.8 = = > > > 9 q @.@.e.w.q.q.a.a.u.q.a.1XoXeX1Xu.<.q & O O o + # # @ @ i (.$X$X+X}.",
"@ # . k l > : : : , 6 , > ; > ; & > , M K H -.7 . = = % & > 0 q w q.@.q.q.a.a.q.@.e.i.i.z.z.@.O.2 X X X : + + = @ @ C |.$X,X+X+X",
"- # . - ; x - ; * * * * * = = * * = , N Y &.>.N # # - * % > 6 0 w @.w.#.o.q.a.q.@.#.@.@.O.0 3 & O X X o + + o @ @ k Z }.$XjX+X(.",
"n # . @ : : : : 6 6 6 ; ; > > > > < 7 ) (.@X@X@X^.}.}.{ (  .{.}.w @.w q.#.#.#.#.o.q.#.O.O.3 1 1 1 X X o : @ @ l i i V ^.(.(.2.) ",
": # . . ; , ; - : : * * * ; 6 ; * x x 2.>XFXxXjXjXFXvXhXjXlXhXlX0 q w q o.o.o.X.X.3 X.3 1 1 1 O o X X . i i @ i i p Q Q ^ d ( ^.",
"- # . = 6 7 7 , 6 6 6 6 M N R N x M n 2.xXvXvX_._.vXvXvXvXGXnXbX9 8 q 3 X.#.o.X.X.3 3 1 3 1 X O X X X X V s s ! d p c d v p p p ",
"l . . * ; & , > 6 : 6 4 6 N N x ; x N U jXvXFXxXjXvXvXvXvXHXmX#XD w 0 q X.#.o.X.X.3 3 2 1 X 1 X X X X a ).+X[././.s p p p r r r ",
"i . . = > 4 6 6 4 6 ..B B 5 M M M N F ;.@XmXFXMXHXvXvXzXzXvXjX@XH q 0 O.3 o.X.X.o.o.X.3 3 X 1 $ $ X %.%.|.+XkXhXhXs d s s p p p ",
"i i # x 7 N 8 N 8 m 6.).:.;.H N H Y J Y @XFXMXHXFXFXzXzXzXzXxX$XM q 8 O.o.+.+.X.o.3 X.2 ..O $ 5 %.$ $ %.a m W y s s Q W r r e r ",
"k i e l N K N N :.6.%XtX).*.;.Y Y R Y Y |.,X$XmXxXmX,XxX>X@X}.c.> q q O.o.o.+...o.3 X.3 ..2 $ n.*.<.*.a $ 4 r r r t W | t e r t ",
"t e i v N N M N &.&.6.`.1.&.B N B H J Y ;.' ( 2.' ` 5.' ' 5.Y : 0 3 N 1 ..........2 2 2 $ $ 4 :.5 $ + + N N r r r s W 0.j r ~ ^.",
"i k c ( C C C C m B Z &.Z Z B H Y K Y R ;.;.C Y x v C M N ;.N & q q C 5 ..........2 2 2 $ $ $ 2.&.&.a $ 8 B p s u s c f j ! /.~.",
"c c W ( ( Z Z C B B Y Z N C U Z Z N Y Y ;.Y v U C l Z N B ;.B K O.=.Z :.+...$.*.&.<.$.=.=.&.:.N.n.<.:.m 1 8 W ~ ! !.h   e ~.~.~.",
"W W ! ( ( Z ` C U C C C n l ` C C n U ' 2.;.C ( v n C n Z Z ;.:.:.<.) 4.<.$.$.$.&.<.<.*.:.*.1.1.1.$ a n 4 G Q ~ ! ! f   h ].~.~.",
"! ~ ~ { } 5.2.5.' 2.[ ' C l 4.' ( v ' ' ;.5.Z { C C Z Z Z 2.;.:.4.<./ ) &.*.*.<.*.:.*.1.1.4.1.2.1.^ ^ / C S W ~ ^.!.f f 0.].].{.",
"{ (.} { 5.[ U T Y j.[ ' U C  .[ [ ` } j.4.c.5.4.4.5.k.4.k.4.4.n.n.M.(.6.n.n.d.M.V.V.V.XX&X-X-X-X;X&X|.|.{.].#X[.lX#X].0.<XeX<X1X",
"{.].{. X{.{.0.0.0.v.{.0.9.x.v.v.v.v.v.C.C.b.l.l.l.l.l.l.v.l.k.x.z.c.c.c.N.N.N.B.N.N.N.c.c.|.{.{.{.^.^.^.].].].].].].].{.].0. XC.",
"j j j j h h j h h h h f g g g f g g W g c g c g c z z c z v v v v C C C ^ ) ^ ) / / ^ ! ! ! s !.! Q.Q.!.Q.Q.Q.Q.~.~.].].9.].~._ ",
"y h j !.Q.y y y h y y u u u h h f g g g g t g c k g k c k c v l v v V V V V ^ ^ ^ / ! d d ! ! Q.Q.!.!.!.j j ].~.].~.].#X^.^.!.!.",
"j _ !.~._ _ g W ~ h j W W W _ ~ ~ W k k k z z v z x l x C l l 6 n 4 n n n m B m V ^ ^ V v Q ~ ~ ~ ~ _ _ S _ _ 8.S S U } ! Q W W "
};
